<?xml version="1.0" encoding="UTF-8" standalone="no"?>
<svg
   xmlns:dc="http://purl.org/dc/elements/1.1/"
   xmlns:cc="http://creativecommons.org/ns#"
   xmlns:rdf="http://www.w3.org/1999/02/22-rdf-syntax-ns#"
   xmlns:svg="http://www.w3.org/2000/svg"
   xmlns="http://www.w3.org/2000/svg"
   viewBox="0 0 589.38666 562.76001"
   height="562.76001"
   width="589.38666"
   xml:space="preserve"
   id="svg2"
   version="1.1"><metadata
     id="metadata8"><rdf:RDF><cc:Work
         rdf:about=""><dc:format>image/svg+xml</dc:format><dc:type
           rdf:resource="http://purl.org/dc/dcmitype/StillImage" /></cc:Work></rdf:RDF></metadata><defs
     id="defs6" /><g
     transform="matrix(1.3333333,0,0,-1.3333333,0,562.76)"
     id="g10"><g
       transform="scale(0.1)"
       id="g12"><path
         id="path14"
         style="fill:#e7e8e5;fill-opacity:1;fill-rule:nonzero;stroke:none"
         d="m 3966.79,1689.57 -529.83,208.34 140.43,357.13 529.83,-208.34 -140.43,-357.13" /><path
         id="path16"
         style="fill:#dadbd8;fill-opacity:1;fill-rule:nonzero;stroke:none"
         d="m 4107.22,2041.74 c 0.06,-0.17 -2.28,-1.14 -6.79,-2.82 -5,-1.79 -11.61,-4.16 -19.84,-7.12 -17.83,-6.16 -42.74,-14.76 -73.32,-25.32 -62.57,-21.08 -148.21,-49.94 -243.07,-81.9 l -2.01,-0.68 -1.05,1.84 c -0.81,1.4 -1.68,2.92 -2.56,4.43 -50.28,87.93 -95.78,167.5 -129.05,225.69 -16.09,28.63 -29.2,51.97 -38.6,68.68 -4.26,7.81 -7.67,14.07 -10.26,18.8 -2.3,4.33 -3.43,6.65 -3.27,6.74 0.14,0.08 1.58,-2.06 4.17,-6.22 2.8,-4.61 6.49,-10.7 11.11,-18.32 9.73,-16.51 23.33,-39.57 40.01,-67.86 33.61,-57.98 79.58,-137.29 130.37,-224.93 0.87,-1.51 1.75,-3.04 2.55,-4.43 l -3.05,1.16 c 95.05,31.39 180.87,59.74 243.56,80.44 30.79,9.92 55.88,17.99 73.84,23.77 8.37,2.59 15.06,4.65 20.13,6.21 4.63,1.37 7.07,2 7.13,1.84" /><path
         id="path18"
         style="fill:#dadbd8;fill-opacity:1;fill-rule:nonzero;stroke:none"
         d="m 3436.97,1892.95 c -0.68,1.26 58.41,34.54 131.97,74.34 73.58,39.81 133.76,71.06 134.43,69.8 0.69,-1.25 -58.39,-34.53 -131.98,-74.35 -73.55,-39.79 -133.75,-71.04 -134.42,-69.79" /><path
         id="path20"
         style="fill:#dadbd8;fill-opacity:1;fill-rule:nonzero;stroke:none"
         d="m 3881.26,1972.3 c 1.36,0.41 21.62,-63.67 45.24,-143.1 23.63,-79.46 41.67,-144.18 40.3,-144.58 -1.36,-0.41 -21.63,63.65 -45.25,143.11 -23.62,79.43 -41.66,144.16 -40.29,144.57" /><path
         id="path22"
         style="fill:#e7e8e5;fill-opacity:1;fill-rule:nonzero;stroke:none"
         d="M 1997.78,408.859 1488.4,154.578 1317.01,497.93 l 509.38,254.269 171.39,-343.34" /><path
         id="path24"
         style="fill:#dadbd8;fill-opacity:1;fill-rule:nonzero;stroke:none"
         d="m 1830.08,748.879 c 0.17,-0.059 -0.69,-2.457 -2.46,-6.938 -2.01,-4.91 -4.66,-11.402 -7.98,-19.5 -7.36,-17.371 -17.63,-41.64 -30.25,-71.429 -26.21,-60.59 -62.08,-143.551 -101.81,-235.43 l -0.84,-1.941 -2.08,0.449 c -1.57,0.332 -3.29,0.699 -5,1.058 -98.99,21.493 -188.57,40.93 -254.06,55.141 -32.04,7.211 -58.16,13.09 -76.86,17.293 -8.67,2.059 -15.6,3.707 -20.85,4.957 -4.75,1.191 -7.23,1.891 -7.19,2.07 0.04,0.172 2.59,-0.199 7.41,-1.058 5.3,-1 12.3,-2.34 21.05,-4 18.78,-3.821 45.02,-9.141 77.2,-15.68 65.58,-13.832 155.27,-32.75 254.38,-53.66 1.71,-0.371 3.43,-0.731 5.01,-1.07 l -2.91,-1.5 c 40.28,91.648 76.65,174.379 103.22,234.828 13.24,29.511 24.03,53.551 31.75,70.769 3.68,7.942 6.63,14.301 8.86,19.121 2.08,4.352 3.25,6.59 3.41,6.52" /><path
         id="path26"
         style="fill:#dadbd8;fill-opacity:1;fill-rule:nonzero;stroke:none"
         d="m 1492.09,151.27 c -1.39,0.332 13.42,66.519 33.08,147.812 19.66,81.316 36.72,146.938 38.1,146.609 1.39,-0.339 -13.42,-66.511 -33.08,-147.832 -19.65,-81.289 -36.72,-146.918 -38.1,-146.589" /><path
         id="path28"
         style="fill:#dadbd8;fill-opacity:1;fill-rule:nonzero;stroke:none"
         d="m 1730.45,534.5 c 0.61,1.289 61.79,-26.531 136.62,-62.141 74.85,-35.621 135.02,-65.527 134.4,-66.82 -0.61,-1.277 -61.77,26.531 -136.63,62.152 -74.82,35.61 -135,65.52 -134.39,66.809" /><path
         id="path30"
         style="fill:#e7e8e5;fill-opacity:1;fill-rule:nonzero;stroke:none"
         d="m 989.73,2040.93 c 193.56,129.2 240.81,373.63 236.68,594.05 -0.7,36.81 3.99,75.52 -13.23,108.05 -17.23,32.53 -58.23,55.19 -91.84,40.2 -27.87,-12.44 -40.43,-44.03 -56.32,-70.08 -21.14,-34.64 -52.27,-63.12 -88.665,-81.08 -23.921,-11.8 -53.39,-18.79 -76.617,-5.68 -31.875,17.99 -34.98,61.86 -34.179,98.45 1.492,68.15 2.984,136.32 4.476,204.47 0.797,36.58 1.5,73.91 -9.496,108.81 -10.988,34.88 -35.941,67.51 -71.051,77.79 -35.101,10.26 -79.019,-9.15 -87.015,-44.83 -3.332,-14.86 -0.493,-30.37 -1.758,-45.54 -1.266,-15.16 -8.703,-31.85 -23.379,-35.88 -14.852,-4.06 -29.52,6.54 -40.441,17.4 -37.676,37.51 -62.891,85.47 -86.411,133.15 -23.523,47.67 -46.312,96.45 -80.394,137.25 -34.078,40.8 -81.602,73.43 -134.621,77.2 -53.031,3.76 -110.082,-27.74 -124.297,-78.96 -14.25,-51.36 15.422,-104.13 47.941,-146.37 48.235,-62.67 105.606,-118.3 169.707,-164.61 11.563,-8.36 24.082,-17.39 28.348,-31 7.66,-24.5 -16.133,-48.38 -40.641,-56.04 -27.769,-8.65 -57.699,-5.37 -86.644,-8.3 -28.953,-2.93 -60.457,-15.04 -71.809,-41.82 -15.754,-37.18 15.317,-76.83 46.086,-102.96 61.617,-52.32 132.274,-93.99 207.875,-122.61 27.117,-10.27 55.66,-19.32 77.352,-38.55 21.687,-19.25 34.449,-52.31 20.769,-77.87 -13.691,-25.6 -47.914,-33.33 -76.386,-27.67 -28.477,5.64 -53.797,21.33 -80.856,31.87 -50.633,19.73 -116.453,17.24 -149.75,-25.7 -21.883,-28.24 -24.394,-67.97 -14.074,-102.17 10.308,-34.2 31.84,-63.85 54.769,-91.23 80.157,-95.74 183.469,-173.4 300.985,-215.58 117.519,-42.2 226.816,-54.78 344.886,-14.16" /><path
         id="path32"
         style="fill:#dadbd8;fill-opacity:1;fill-rule:nonzero;stroke:none"
         d="m 933.691,2179.75 c -31.144,111.63 -75.566,231.21 -126.351,354.75 -12.817,30.83 -25.481,61.28 -37.965,91.31 -12.516,29.96 -24.926,59.63 -38.887,87.93 -27.672,56.72 -58.644,109.17 -89.629,158.07 -30.984,48.93 -62.187,94.24 -91.679,136.43 -29.582,42.11 -57.907,80.86 -85.242,115.1 -54.473,68.68 -104.938,118.86 -140.989,151.94 -18.011,16.6 -32.39,29.03 -42.246,37.36 -4.793,3.99 -8.527,7.11 -11.254,9.38 -2.554,2.09 -3.957,3.05 -3.957,3.05 0,0 1.149,-1.25 3.586,-3.48 2.633,-2.36 6.254,-5.63 10.902,-9.79 9.602,-8.59 23.75,-21.27 41.5,-38.09 35.555,-33.53 85.45,-83.97 139.391,-152.79 27.082,-34.31 55.164,-73.12 84.555,-115.31 29.297,-42.26 60.32,-87.62 91.125,-136.53 30.808,-48.86 61.597,-101.21 89.074,-157.71 13.863,-28.19 26.156,-57.66 38.684,-87.69 12.472,-30.01 25.117,-60.46 37.921,-91.28 50.754,-123.45 95.223,-242.75 126.559,-354.04" /><path
         id="path34"
         style="fill:#dadbd8;fill-opacity:1;fill-rule:nonzero;stroke:none"
         d="m 729.113,2714.3 c 0.375,-0.06 1.649,5.49 3.617,15.6 2.024,10.09 4.512,24.78 7.344,42.94 5.696,36.36 11.906,86.81 18.617,142.47 6.711,55.69 13.786,105.91 20.254,142.05 3.18,18.09 5.934,32.69 7.985,42.75 1.992,10.07 2.929,15.7 2.554,15.8 -0.371,0.08 -2.007,-5.37 -4.648,-15.32 -2.707,-9.93 -6.047,-24.46 -9.723,-42.5 -7.492,-36.06 -15.191,-86.38 -21.91,-142.11 -6.574,-55.18 -12.523,-105.11 -16.992,-142.59 -2.262,-17.44 -4.152,-31.96 -5.606,-43.16 -1.316,-10.19 -1.871,-15.86 -1.492,-15.93" /><path
         id="path36"
         style="fill:#dadbd8;fill-opacity:1;fill-rule:nonzero;stroke:none"
         d="m 254.012,2809.3 c -0.012,-0.19 1.676,-0.48 4.89,-0.87 3.871,-0.39 8.504,-0.85 14.086,-1.42 12.227,-1.16 29.907,-2.82 51.696,-5.59 43.578,-5.18 103.546,-14.52 169.211,-27.75 65.671,-13.35 124.558,-27.99 166.824,-39.87 21.176,-5.79 38.179,-10.95 49.953,-14.47 5.375,-1.58 9.851,-2.9 13.578,-3.99 3.125,-0.85 4.793,-1.22 4.863,-1.04 0.059,0.19 -1.492,0.9 -4.508,2.1 -3.636,1.36 -8.007,3 -13.265,4.97 -11.574,4.15 -28.438,9.9 -49.527,16.19 -42.086,12.85 -100.997,28.15 -166.829,41.52 -65.82,13.27 -126.05,22.02 -169.875,26.22 -21.886,2.27 -39.671,3.35 -51.968,3.86 -5.618,0.15 -10.278,0.29 -14.168,0.39 -3.239,0.02 -4.957,-0.05 -4.961,-0.25" /><path
         id="path38"
         style="fill:#dadbd8;fill-opacity:1;fill-rule:nonzero;stroke:none"
         d="m 928.535,2188.65 c 0.176,-0.08 1.285,1.9 3.231,5.74 2.168,4.4 4.914,10.01 8.32,16.94 7.168,14.72 17.016,36.29 28.852,63.08 23.714,53.57 54.202,128.55 86.782,211.72 32.61,83.19 62.47,158.32 85.25,212.23 11.29,26.42 20.52,48.03 27.22,63.74 3.01,7.09 5.45,12.84 7.36,17.35 1.63,3.99 2.4,6.13 2.23,6.21 -0.18,0.08 -1.28,-1.9 -3.24,-5.74 -2.16,-4.4 -4.91,-10.01 -8.31,-16.94 -7.17,-14.73 -17.01,-36.29 -28.84,-63.08 -23.73,-53.57 -54.22,-128.55 -86.8,-211.75 -32.6,-83.17 -62.473,-158.28 -85.242,-212.19 -11.289,-26.42 -20.52,-48.04 -27.223,-63.75 -3.012,-7.09 -5.449,-12.84 -7.363,-17.36 -1.625,-3.98 -2.399,-6.12 -2.227,-6.2" /><path
         id="path40"
         style="fill:#dadbd8;fill-opacity:1;fill-rule:nonzero;stroke:none"
         d="m 298.512,2399.5 c -0.047,-0.18 2.113,-1.05 6.277,-2.54 4.746,-1.62 10.828,-3.68 18.336,-6.23 16.613,-5.54 39.52,-13.18 67.535,-22.51 56.988,-19.07 135.391,-46.37 221.938,-76.75 86.578,-30.38 165.242,-57.14 222.586,-75.27 28.679,-9.08 51.929,-16.2 68.097,-20.83 7.649,-2.16 13.828,-3.9 18.645,-5.26 4.281,-1.14 6.551,-1.65 6.609,-1.46 0.059,0.18 -2.109,1.05 -6.289,2.53 -4.734,1.62 -10.805,3.68 -18.32,6.24 -16.602,5.53 -39.512,13.16 -67.528,22.5 -57,19.06 -135.402,46.39 -221.976,76.76 -86.551,30.37 -165.211,57.13 -222.547,75.26 -28.676,9.07 -51.941,16.21 -68.109,20.84 -7.637,2.15 -13.813,3.89 -18.645,5.25 -4.281,1.14 -6.551,1.65 -6.609,1.47" /><path
         id="path42"
         style="fill:#dadbd8;fill-opacity:1;fill-rule:nonzero;stroke:none"
         d="M 999.195,3801.17 H 434.957 c -38.867,0 -70.375,31.51 -70.375,70.38 v 278.78 c 0,38.87 31.508,70.38 70.375,70.38 h 564.238 c 38.875,0 70.385,-31.51 70.385,-70.38 v -278.78 c 0,-38.87 -31.51,-70.38 -70.385,-70.38" /><path
         id="path44"
         style="fill:#dadbd8;fill-opacity:1;fill-rule:nonzero;stroke:none"
         d="m 793.453,3814.57 166.684,-148.02 13.683,145.4" /><path
         id="path46"
         style="fill:#ffffff;fill-opacity:1;fill-rule:nonzero;stroke:none"
         d="m 625.387,4005 c 0,-22.67 -18.379,-41.05 -41.051,-41.05 -22.668,0 -41.051,18.38 -41.051,41.05 0,22.67 18.383,41.05 41.051,41.05 22.672,0 41.051,-18.38 41.051,-41.05" /><path
         id="path48"
         style="fill:#ffffff;fill-opacity:1;fill-rule:nonzero;stroke:none"
         d="m 766.668,4005 c 0,-22.67 -18.383,-41.05 -41.051,-41.05 -22.672,0 -41.051,18.38 -41.051,41.05 0,22.67 18.379,41.05 41.051,41.05 22.668,0 41.051,-18.38 41.051,-41.05" /><path
         id="path50"
         style="fill:#ffffff;fill-opacity:1;fill-rule:nonzero;stroke:none"
         d="m 907.945,4005 c 0,-22.67 -18.379,-41.05 -41.05,-41.05 -22.668,0 -41.047,18.38 -41.047,41.05 0,22.67 18.379,41.05 41.047,41.05 22.671,0 41.05,-18.38 41.05,-41.05" /><path
         id="path52"
         style="fill:#e7e8e5;fill-opacity:1;fill-rule:nonzero;stroke:none"
         d="m 3430.43,3205.55 -529.83,208.34 140.42,357.12 529.84,-208.33 -140.43,-357.13" /><path
         id="path54"
         style="fill:#dadbd8;fill-opacity:1;fill-rule:nonzero;stroke:none"
         d="m 3570.87,3557.71 c 0.04,-0.16 -2.3,-1.13 -6.81,-2.81 -5,-1.8 -11.59,-4.17 -19.84,-7.12 -17.83,-6.16 -42.74,-14.76 -73.32,-25.33 -62.56,-21.07 -148.21,-49.94 -243.07,-81.9 l -2,-0.67 -1.06,1.83 c -0.8,1.4 -1.68,2.92 -2.56,4.45 -50.27,87.92 -95.78,167.49 -129.05,225.67 -16.08,28.63 -29.2,51.97 -38.59,68.69 -4.27,7.81 -7.68,14.06 -10.27,18.8 -2.29,4.32 -3.43,6.64 -3.27,6.73 0.16,0.09 1.58,-2.05 4.17,-6.21 2.8,-4.62 6.5,-10.71 11.11,-18.32 9.74,-16.51 23.33,-39.57 40.02,-67.86 33.61,-57.99 79.57,-137.3 130.37,-224.93 0.87,-1.52 1.74,-3.04 2.55,-4.43 l -3.05,1.15 c 95.05,31.4 180.87,59.74 243.56,80.45 30.79,9.91 55.87,17.99 73.83,23.77 8.37,2.58 15.07,4.64 20.15,6.21 4.62,1.36 7.07,2 7.13,1.83" /><path
         id="path56"
         style="fill:#dadbd8;fill-opacity:1;fill-rule:nonzero;stroke:none"
         d="m 2900.6,3408.93 c -0.67,1.25 58.42,34.54 131.97,74.34 73.59,39.8 133.76,71.05 134.45,69.79 0.67,-1.25 -58.41,-34.53 -131.98,-74.34 -73.56,-39.8 -133.75,-71.05 -134.44,-69.79" /><path
         id="path58"
         style="fill:#dadbd8;fill-opacity:1;fill-rule:nonzero;stroke:none"
         d="m 3344.89,3488.28 c 1.37,0.4 21.63,-63.67 45.24,-143.1 23.64,-79.47 41.67,-144.19 40.31,-144.59 -1.37,-0.41 -21.63,63.66 -45.26,143.11 -23.62,79.43 -41.66,144.17 -40.29,144.58" /><path
         id="path60"
         style="fill:#17282f;fill-opacity:1;fill-rule:nonzero;stroke:none"
         d="M 4362.05,2.60156 C 4362.05,1.16016 3385.49,0 2181.13,0 976.348,0 0,1.16016 0,2.60156 c 0,1.4375 976.348,2.59766 2181.13,2.59766 1204.36,0 2180.92,-1.16016 2180.92,-2.59766" /><path
         id="path62"
         style="fill:#f03d5f;fill-opacity:1;fill-rule:nonzero;stroke:none"
         d="m 2389.02,2206.6 c 0,-71.25 -57.75,-129 -129,-129 -71.26,0 -129.02,57.75 -129.02,129 0,71.25 57.76,129.01 129.02,129.01 71.25,0 129,-57.76 129,-129.01" /><path
         id="path64"
         style="fill:#f03d5f;fill-opacity:1;fill-rule:nonzero;stroke:none"
         d="m 2833.02,2206.6 c 0,-71.25 -57.75,-129 -129,-129 -71.25,0 -129.01,57.75 -129.01,129 0,71.25 57.76,129.01 129.01,129.01 71.25,0 129,-57.76 129,-129.01" /><path
         id="path66"
         style="fill:#f03d5f;fill-opacity:1;fill-rule:nonzero;stroke:none"
         d="m 3562.63,2874.06 c 0,0.28 2.53,0.43 7.57,0.46 5.03,0.15 12.58,-0.46 22.34,-2.46 9.81,-1.79 21.65,-6 34.67,-13.02 12.93,-7.16 26.82,-17.95 38.8,-33.45 12.04,-15.36 22.04,-35.69 25.52,-59.75 1.26,-5.94 1.06,-12.21 1.57,-18.49 0.06,-6.14 0.13,-12.41 0.19,-18.82 0.12,-12.8 0.24,-26.14 0.38,-40 0.41,-55.45 0.9,-119.24 1.43,-190.76 0.71,-143.08 1.57,-317.13 2.55,-517.39 0.19,-50.07 0.37,-101.78 0.57,-155.05 0.09,-26.64 0.17,-53.66 0.26,-81.07 0.05,-13.71 0.09,-27.5 0.14,-41.4 0.02,-6.94 0.04,-13.92 0.06,-20.91 -0.31,-7.5 -0.5,-15.09 -1.93,-22.57 -4.74,-29.98 -20.12,-58.73 -43.57,-79.37 -23.17,-20.75 -54.14,-33.96 -86.25,-34.61 -59.34,-0.22 -120.09,-0.44 -182.18,-0.67 l 10.77,9.81 c -11.78,-128.09 -24.23,-263.35 -37.14,-403.77 l -2.03,-21.91 -17,14.02 C 3185.61,1269.56 3021.24,1405 2850.24,1545.9 l 7.98,-2.87 c -313.88,-0.16 -652.34,-0.33 -1002.19,-0.49 -63.56,0 -126.74,0.01 -189.51,0.01 -15.69,0.01 -31.36,0.01 -47,0.01 -2.88,0.03 -5.68,0.02 -8.47,0 -4.94,-0.02 -9.89,-0.04 -15.31,0.18 -8.61,0.16 -17.15,1.34 -25.58,2.99 -33.78,7.03 -64.13,27.46 -83.86,55.24 -9.91,13.88 -17.21,29.59 -21.43,46.05 -4.46,16.21 -4.78,34.42 -4.53,49.03 0.02,30.73 0.04,61.32 0.05,91.8 0.04,60.95 0.08,121.42 0.11,181.35 0.27,239.71 0.52,470.94 0.76,691.22 0.04,27.53 0.09,54.89 0.13,82.08 0.06,13.83 1.04,29.5 5.51,43.44 4.17,14.17 10.52,27.62 18.74,39.76 16.78,23.96 40.78,42.86 68.26,52.08 13.65,4.58 27.95,7.63 42.29,7.64 8.85,0.19 17.28,0.15 25.7,0.11 4.6,-0.02 9.19,-0.04 13.84,-0.02 104.35,-0.23 205.65,-0.45 303.6,-0.66 195.89,-0.57 378.35,-1.1 544.93,-1.58 333.12,-1.75 602.69,-3.17 789.06,-4.15 93.1,-1.05 165.41,-1.88 214.52,-2.44 24.47,-0.57 43.15,-1 55.79,-1.29 12.57,-0.44 19,-0.88 19,-1.33 0,-0.45 -6.43,-0.9 -19,-1.34 -12.64,-0.29 -31.32,-0.72 -55.79,-1.29 -49.11,-0.56 -121.42,-1.38 -214.52,-2.44 -186.37,-0.98 -455.94,-2.39 -789.06,-4.14 -166.58,-0.49 -349.04,-1.02 -544.93,-1.59 -97.95,-0.21 -199.25,-0.43 -303.6,-0.65 -4.6,-0.03 -9.27,-0.03 -13.95,-0.03 -8.46,0.01 -16.94,0.01 -25.04,-0.19 -11.99,-0.01 -23.83,-2.68 -35.17,-6.49 -22.8,-7.69 -42.67,-23.56 -56.57,-43.47 -13.66,-20.4 -20.71,-44.23 -19.87,-69.93 0.04,-27.19 0.08,-54.55 0.12,-82.08 0.25,-220.28 0.5,-451.51 0.76,-691.22 0.04,-59.93 0.08,-120.4 0.12,-181.35 0.01,-30.48 0.03,-61.07 0.04,-91.8 -0.2,-16.04 0.13,-28.92 3.75,-42.57 3.44,-13.38 9.38,-26.14 17.45,-37.44 16.09,-22.61 40.82,-39.26 68.24,-44.93 6.86,-1.31 13.8,-2.28 20.82,-2.4 4.55,-0.21 9.61,-0.19 14.66,-0.16 2.84,0.01 5.68,0.02 8.43,-0.01 15.64,0.01 31.31,0.01 47,0.01 62.77,0.01 125.95,0.01 189.51,0.02 349.85,-0.17 688.31,-0.34 1002.19,-0.5 h 4.52 l 3.46,-2.87 c 170.6,-141.36 334.61,-277.25 487.99,-404.36 l -19.02,-7.89 c 13.5,140.37 26.5,275.58 38.81,403.62 l 0.95,9.82 9.82,-0.02 c 61.88,-0.08 122.41,-0.17 181.53,-0.26 27.29,0.38 53.56,11.47 73.43,29.02 20.12,17.48 33.37,41.91 37.57,67.49 1.29,6.38 1.44,12.86 1.79,19.33 0.02,6.99 0.05,13.97 0.07,20.91 0.04,13.9 0.08,27.69 0.12,41.4 0.09,27.41 0.19,54.43 0.28,81.07 0.18,53.27 0.38,104.98 0.55,155.05 1,200.26 1.85,374.31 2.56,517.39 0.54,71.52 1.02,135.31 1.44,190.76 0.12,13.86 0.25,27.2 0.37,40 0.07,6.41 0.13,12.68 0.18,18.82 -0.38,5.93 -0.03,11.78 -1.11,17.38 -2.76,22.63 -11.7,42.03 -22.73,56.93 -10.98,15.03 -23.9,25.77 -36.07,33.1 -12.26,7.2 -23.53,11.8 -32.97,14.07 -18.84,4.81 -29.19,4.25 -29.13,5.23" /><path
         id="path68"
         style="fill:#f03d5f;fill-opacity:1;fill-rule:nonzero;stroke:none"
         d="M 2735.28,913.531 H 787.559 c -73.981,0 -133.95,59.969 -133.95,133.959 v 1050.59 c 0,73.99 59.969,133.96 133.95,133.96 H 2735.28 c 73.97,0 133.94,-59.97 133.94,-133.96 V 1047.49 c 0,-73.99 -59.97,-133.959 -133.94,-133.959" /><path
         id="path70"
         style="fill:#f03d5f;fill-opacity:1;fill-rule:nonzero;stroke:none"
         d="m 2001.46,955.641 523.84,-465.172 42.99,456.922" /><path
         id="path72"
         style="fill:#ffffff;fill-opacity:1;fill-rule:nonzero;stroke:none"
         d="m 1473.26,1554.11 c 0,-71.25 -57.76,-129 -129.01,-129 -71.25,0 -129.01,57.75 -129.01,129 0,71.25 57.76,129.01 129.01,129.01 71.25,0 129.01,-57.76 129.01,-129.01" /><path
         id="path74"
         style="fill:#ffffff;fill-opacity:1;fill-rule:nonzero;stroke:none"
         d="m 1917.26,1554.11 c 0,-71.25 -57.76,-129 -129.01,-129 -71.25,0 -129.01,57.75 -129.01,129 0,71.25 57.76,129.01 129.01,129.01 71.25,0 129.01,-57.76 129.01,-129.01" /><path
         id="path76"
         style="fill:#ffffff;fill-opacity:1;fill-rule:nonzero;stroke:none"
         d="m 2361.27,1554.11 c 0,-71.25 -57.76,-129 -129.01,-129 -71.25,0 -129.01,57.75 -129.01,129 0,71.25 57.76,129.01 129.01,129.01 71.25,0 129.01,-57.76 129.01,-129.01" /><path
         id="path78"
         style="fill:#ba2c42;fill-opacity:1;fill-rule:nonzero;stroke:none"
         d="m 2787.13,2221.63 c -4.66,1.96 -9.45,3.66 -14.36,5.09 l 13.89,-0.41 c 0.21,-1.56 0.37,-3.12 0.47,-4.68" /><path
         id="path80"
         style="fill:#a7a9a8;fill-opacity:1;fill-rule:nonzero;stroke:none"
         d="m 2577.51,2232.04 h -191 c -0.02,0.12 -0.04,0.24 -0.07,0.36 l 191.15,0.04 c -0.02,-0.13 -0.05,-0.27 -0.08,-0.4 m -444,0 h -647.78 c 0,0.04 0,0.09 0,0.13 l 647.84,0.16 c -0.02,-0.1 -0.04,-0.19 -0.06,-0.29 m -672.72,0 h -307.82 c 0.01,0.01 0.02,0.03 0.02,0.05 l 307.8,0.07 c 0,-0.04 0,-0.08 0,-0.12" /><path
         id="path82"
         style="fill:#979999;fill-opacity:1;fill-rule:nonzero;stroke:none"
         d="M 1152.97,2232.04 H 968.184 l 184.806,0.05 c 0,-0.02 -0.01,-0.04 -0.02,-0.05" /><path
         id="path84"
         style="fill:#ba2c42;fill-opacity:1;fill-rule:nonzero;stroke:none"
         d="m 2386.51,2232.04 h -253 c 0.02,0.1 0.04,0.19 0.06,0.29 l 252.87,0.07 c 0.03,-0.12 0.05,-0.24 0.07,-0.36" /><path
         id="path86"
         style="fill:#ba2c42;fill-opacity:1;fill-rule:nonzero;stroke:none"
         d="m 2592.17,2232.04 h -14.66 c 0.03,0.13 0.06,0.27 0.08,0.4 h 0.8 l 13.78,-0.4" /><path
         id="path88"
         style="fill:#ba2c42;fill-opacity:1;fill-rule:nonzero;stroke:none"
         d="m 1485.73,2232.04 h -24.94 c 0,0.04 0,0.08 0,0.12 l 24.94,0.01 c 0,-0.04 0,-0.09 0,-0.13" /><path
         id="path90"
         style="fill:#ba2c42;fill-opacity:1;fill-rule:nonzero;stroke:none"
         d="m 1594.44,2006.6 c -37.73,0 -75.48,1.47 -113.17,4.76 -187.98,16.36 -379.27,87.64 -513.086,220.68 v 0 h 184.786 307.82 24.94 647.78 253 191 14.66 l 180.6,-5.32 c 4.91,-1.43 9.7,-3.13 14.36,-5.09 2.43,-37.67 -28.28,-72.14 -63.83,-86.31 -28.42,-11.33 -59.29,-12.93 -90.13,-12.93 -9.33,0 -18.66,0.15 -27.91,0.22 -3.56,0.02 -7.12,0.03 -10.67,0.03 -185.06,0 -368.2,-35.26 -550.62,-66.86 -148.66,-25.74 -299.1,-49.18 -449.53,-49.18" /><path
         id="path92"
         style="fill:#f03d5f;fill-opacity:1;fill-rule:nonzero;stroke:none"
         d="m 3277.03,2206.6 c 0,-71.25 -57.76,-129 -129.01,-129 -71.25,0 -129.01,57.75 -129.01,129 0,71.25 57.76,129.01 129.01,129.01 71.25,0 129.01,-57.76 129.01,-129.01" /><path
         id="path94"
         style="fill:#17282f;fill-opacity:1;fill-rule:nonzero;stroke:none"
         d="m 2036.36,4103.35 c -103.56,0.69 -203.07,-73.89 -231.5,-173.47 -14.64,-51.31 -11.76,-105.94 -21.09,-158.48 -9.34,-52.54 -35.92,-107.67 -85.81,-126.6 -32.5,-12.33 -69.72,-7.22 -102,-20.1 -30,-11.98 -53.08,-39.9 -59.21,-71.62 -6.12,-31.72 4.92,-66.22 28.3,-88.51 -39.08,-33.75 -49.89,-95.97 -24.47,-140.93 25.41,-44.96 84.29,-67.79 133.37,-51.71 -18.52,-29.44 -12.44,-70.2 9.26,-97.38 21.71,-27.17 56.24,-41.84 90.8,-45.78 34.56,-3.94 69.47,1.81 103.43,9.32 75.74,16.75 151.82,43.76 208.79,96.42 62.53,57.82 95.62,140.37 120.67,221.77 47.87,155.52 73.36,322.97 34.23,480.92" /><path
         id="path96"
         style="fill:#f8a58d;fill-opacity:1;fill-rule:nonzero;stroke:none"
         d="m 1687.79,3236.51 -84.24,-184.3 -184.54,406.9 c -8.73,32.85 -18.45,69.98 -20.44,77.39 -3.05,11.33 -4.04,23.12 -3.12,34.82 1.11,14.18 3.36,32.98 7.79,42.87 5.48,12.26 -6.79,24.8 -17.38,18.76 -10.6,-6.04 -26.51,-39.45 -26.02,-82.67 0.49,-43.23 -148.2,59.3 -172.35,35.04 l 18.02,-142.98 c 16.34,-14.91 62.35,-55.97 87.88,-78.73 l 174.01,-432.99 c 16.33,-44.49 52.89,-78.54 98.44,-91.66 66.07,-19.03 136.58,9.73 170.49,69.55 l 112.06,197.68 -160.6,130.32" /><path
         id="path98"
         style="fill:#17282f;fill-opacity:1;fill-rule:nonzero;stroke:none"
         d="m 1296.92,3716.38 c 2.91,1.14 6.08,-0.59 7.21,-3.95 l 95.68,-284.04 c 1.83,-5.28 -0.16,-11.34 -4.54,-13.79 l -113.69,-63.78 c -4.69,-2.63 -10.3,-0.15 -12.36,5.47 l -107.58,294.45 c -2.11,5.77 0.4,12.43 5.45,14.45 l 129.83,51.19" /><path
         id="path100"
         style="fill:#f3f2f1;fill-opacity:1;fill-rule:nonzero;stroke:none"
         d="m 1300.02,3695.87 88.01,-253.45 -112.52,-59.94 -96.72,265.24 121.23,48.15" /><path
         id="path102"
         style="fill:#dadbd8;fill-opacity:1;fill-rule:nonzero;stroke:none"
         d="m 1200.34,3630.51 c 3.43,-8.64 9.03,-22.65 12.51,-31.34 1.71,-4.28 6.58,-6.29 10.83,-4.51 l 59.73,25.11 20.67,-3.05 -5.79,10.98 6.8,2.73 c 4.3,1.72 6.33,6.64 4.51,10.89 l -12.22,28.5 c -1.76,4.11 -6.5,6.07 -10.65,4.39 l -81.81,-33.03 c -4.21,-1.7 -6.25,-6.45 -4.58,-10.67" /><path
         id="path104"
         style="fill:#dadbd8;fill-opacity:1;fill-rule:nonzero;stroke:none"
         d="m 1251.4,3480.8 c 3.42,-8.64 9.03,-22.65 12.51,-31.34 1.71,-4.28 6.58,-6.29 10.83,-4.51 l 59.73,25.11 20.67,-3.04 -5.79,10.97 6.8,2.73 c 4.3,1.73 6.33,6.64 4.51,10.89 l -12.22,28.5 c -1.76,4.12 -6.5,6.07 -10.65,4.39 l -81.82,-33.03 c -4.2,-1.7 -6.24,-6.46 -4.57,-10.67" /><path
         id="path106"
         style="fill:#dadbd8;fill-opacity:1;fill-rule:nonzero;stroke:none"
         d="m 1320.64,3595.12 c 3.76,-8.5 9.82,-22.32 13.57,-30.9 1.85,-4.21 -0.13,-9.11 -4.38,-10.88 l -59.79,-24.98 -12.31,-16.87 -3.77,11.82 -6.72,-2.93 c -4.24,-1.86 -9.17,0.14 -10.92,4.42 l -11.75,28.68 c -1.7,4.15 0.23,8.9 4.34,10.68 l 80.91,35.18 c 4.16,1.8 8.98,-0.08 10.82,-4.22" /><path
         id="path108"
         style="fill:#f8a58d;fill-opacity:1;fill-rule:nonzero;stroke:none"
         d="m 1187.49,3578.25 c 19.36,-3.19 43.01,-5.11 62.37,-8.29 5.48,-0.9 11.21,-1.9 15.65,-5.23 4.45,-3.33 7.11,-9.76 4.39,-14.61 -3.09,-5.53 -10.71,-6.01 -17.04,-5.81 -14.25,0.47 -29.98,-2.54 -44.23,-2.08 18.16,-1.55 34.99,-3.05 55.28,-5.51 8.42,-1.02 16.97,-8.06 17.14,-16.54 0.14,-7.29 -6.92,-13.11 -14.14,-14.16 -7.23,-1.06 -22.43,-0.35 -22.43,-0.35 0,0 -29.26,-0.42 -30.53,-4.24 18.26,0.13 42.4,-3.82 60.64,-5.45 4.99,-0.44 7.27,-7.27 8.47,-12.13 1.19,-4.86 -0.68,-10.78 -5.28,-12.77 -2.23,-0.96 -4.76,-0.9 -7.19,-0.83 -23.62,0.73 -35.96,-0.77 -59.58,-0.04" /><path
         id="path110"
         style="fill:#f68260;fill-opacity:1;fill-rule:nonzero;stroke:none"
         d="m 1626.41,2920.87 c -1.7,0.18 5.07,31.13 -2.35,68.52 -6.95,37.5 -24.68,63.75 -23.18,64.54 0.5,0.35 5.59,-5.69 11.72,-16.84 6.14,-11.11 12.87,-27.58 16.57,-46.72 3.64,-19.14 3.48,-36.93 1.89,-49.52 -1.57,-12.62 -4.06,-20.11 -4.65,-19.98" /><path
         id="path112"
         style="fill:#f68260;fill-opacity:1;fill-rule:nonzero;stroke:none"
         d="m 1279.04,3493.34 c -0.17,-1.42 -18.68,-0.44 -41.34,2.21 -11.31,1.09 -21.69,3.4 -28.61,3.38 -7.15,0.08 -10.24,-3.57 -10.82,-3.08 -0.25,0.18 0.1,1.44 1.76,3.04 1.63,1.63 4.79,3.17 8.76,3.71 8.07,0.97 18.13,-0.8 29.51,-1.87 22.67,-2.65 40.91,-5.96 40.74,-7.39" /><path
         id="path114"
         style="fill:#f68260;fill-opacity:1;fill-rule:nonzero;stroke:none"
         d="m 1272.48,3534.85 c -0.17,-1.42 -18.47,-0.46 -40.85,2.15 -11.16,1.02 -21.49,3.48 -28.2,3.25 -6.94,-0.21 -9.95,-4.05 -10.56,-3.5 -0.69,0.09 1.81,5.75 10.12,7.16 3.93,0.77 8.66,0.36 13.43,-0.09 5.29,-0.55 10.43,-1.09 15.81,-1.64 22.39,-2.62 40.41,-5.9 40.25,-7.33" /><path
         id="path116"
         style="fill:#17282f;fill-opacity:1;fill-rule:nonzero;stroke:none"
         d="m 1843.13,2678.21 c 0,0 -608.61,45.93 -784.69,-91.87 -176.077,-137.8 -91.862,-359.81 -91.862,-359.81 h 995.212 l 38.28,459.02 -156.94,-7.34" /><path
         id="path118"
         style="fill:#33535f;fill-opacity:1;fill-rule:nonzero;stroke:none"
         d="m 1957.6,2362.02 c -0.02,-0.18 -3.08,0.06 -8.88,0.66 -5.8,0.64 -14.36,1.53 -25.34,2.98 -21.99,2.77 -53.75,7.3 -92.82,13.92 -78.14,13.14 -185.52,35.67 -301.61,69.77 -58.01,17.16 -112.88,34.52 -163.64,47.06 -50.76,12.3 -97.32,20.24 -136.78,21.76 -39.42,1.7 -71.44,-1.17 -93.11,-5.38 -10.98,-1.42 -19.17,-4.14 -24.92,-5.14 -5.68,-1.25 -8.71,-1.82 -8.76,-1.65 -0.04,0.17 2.88,1.08 8.5,2.67 5.67,1.32 13.82,4.38 24.8,6.11 21.67,4.85 53.91,8.31 93.64,7.07 39.79,-1.06 86.73,-8.68 137.77,-20.77 51.02,-12.34 106.06,-29.6 163.97,-46.73 115.87,-34.04 222.9,-57.1 300.78,-71.14 38.94,-7.08 70.58,-12.16 92.46,-15.54 10.59,-1.66 18.99,-2.97 25.2,-3.95 5.76,-0.94 8.77,-1.52 8.74,-1.7" /><path
         id="path120"
         style="fill:#33535f;fill-opacity:1;fill-rule:nonzero;stroke:none"
         d="m 1383.18,2499.14 c -1.15,-1.22 -21.83,21.28 -54.67,38.27 -32.67,17.34 -62.93,21.53 -62.59,23.18 0.08,0.62 7.73,0.4 19.8,-2.13 12.06,-2.49 28.46,-7.7 45.2,-16.44 16.72,-8.79 30.34,-19.31 39.25,-27.8 8.95,-8.5 13.48,-14.66 13.01,-15.08" /><path
         id="path122"
         style="fill:#17282f;fill-opacity:1;fill-rule:nonzero;stroke:none"
         d="m 2283.67,2735.5 c 0,0 -556.75,-15.14 -732.83,-152.93 -176.07,-137.81 -91.86,-359.81 -91.86,-359.81 l 1044,-16.16 v 134.62 l -135.37,14.69 -0.99,6.11 c 52.56,57.55 12.55,257.9 -74.86,363.68 l -8.09,9.8" /><path
         id="path124"
         style="fill:#33535f;fill-opacity:1;fill-rule:nonzero;stroke:none"
         d="m 2439.93,2347.26 c -0.02,-0.18 -3.09,0.05 -8.89,0.66 -5.8,0.64 -14.35,1.53 -25.34,2.98 -21.98,2.77 -53.74,7.3 -92.81,13.92 -78.15,13.14 -185.53,35.67 -301.62,69.77 -58.01,17.16 -112.88,34.52 -163.64,47.06 -50.76,12.29 -97.32,20.24 -136.78,21.76 -39.41,1.7 -71.44,-1.17 -93.11,-5.38 -10.98,-1.42 -19.17,-4.15 -24.91,-5.14 -5.7,-1.25 -8.71,-1.82 -8.76,-1.65 -0.06,0.17 2.86,1.08 8.49,2.66 5.67,1.33 13.82,4.39 24.8,6.12 21.68,4.85 53.91,8.31 93.65,7.07 39.78,-1.06 86.72,-8.68 137.76,-20.78 51.03,-12.33 106.06,-29.59 163.97,-46.72 115.87,-34.05 222.9,-57.1 300.78,-71.14 38.95,-7.08 70.58,-12.16 92.46,-15.55 10.59,-1.65 19,-2.97 25.2,-3.94 5.76,-0.94 8.77,-1.53 8.75,-1.7" /><path
         id="path126"
         style="fill:#33535f;fill-opacity:1;fill-rule:nonzero;stroke:none"
         d="m 1865.51,2484.38 c -1.16,-1.22 -21.84,21.28 -54.68,38.26 -32.67,17.35 -62.93,21.54 -62.58,23.19 0.08,0.62 7.72,0.39 19.79,-2.13 12.06,-2.49 28.46,-7.7 45.21,-16.45 16.71,-8.78 30.33,-19.3 39.24,-27.79 8.95,-8.5 13.48,-14.66 13.02,-15.08" /><path
         id="path128"
         style="fill:#33535f;fill-opacity:1;fill-rule:nonzero;stroke:none"
         d="m 1995.8,2712.31 c 0.02,-0.18 -2.95,-0.67 -8.61,-1.43 -6.11,-0.86 -14.36,-2.02 -24.75,-3.49 -21.45,-3.22 -52.42,-8.42 -90.47,-16.05 -38.04,-7.61 -83.22,-17.44 -133.11,-29.34 -49.58,-12.1 -103.36,-30.79 -153.72,-61.49 -25.15,-15.3 -47.97,-33.09 -66.97,-53.24 -19.1,-20.08 -34.29,-42.36 -46.23,-64.84 -23.74,-45.24 -32.41,-91.63 -32.51,-130.1 -0.37,-38.68 6.93,-69.56 13.2,-90.17 3.22,-10.34 6.17,-18.22 8.26,-23.53 2.12,-5.3 3.16,-8.12 3,-8.2 -0.16,-0.07 -1.52,2.61 -3.97,7.79 -2.41,5.2 -5.68,13 -9.22,23.31 -6.91,20.57 -14.84,51.63 -14.95,90.81 -0.38,38.94 8.04,86.19 31.94,132.31 12.01,22.9 27.38,45.63 46.77,66.11 19.31,20.58 42.51,38.71 67.96,54.19 51.01,31.1 105.32,49.77 155.33,61.72 50.04,11.66 95.32,21.13 133.52,28.28 38.19,7.18 69.32,11.84 90.9,14.45 10.79,1.27 19.19,2.14 24.91,2.53 5.7,0.42 8.71,0.56 8.72,0.38" /><path
         id="path130"
         style="fill:#dadbd8;fill-opacity:1;fill-rule:nonzero;stroke:none"
         d="m 2502.98,2334.57 95.3,6.04 63.01,-36.72 120.95,-13.21 c 57.93,-3.05 67.08,-65.29 31.51,-65.29 -28.29,0 -197.61,-11.04 -197.61,-11.04 l -113.16,-2.96 v 123.18" /><path
         id="path132"
         style="fill:#33535f;fill-opacity:1;fill-rule:nonzero;stroke:none"
         d="m 2657.73,2303.69 c 0.29,-0.51 -4.84,-4.25 -14.65,-6.8 -9.66,-2.58 -24.33,-3.28 -38.97,2.36 -14.64,5.67 -25.03,16.06 -30.45,24.46 -5.55,8.48 -6.83,14.7 -6.27,14.88 0.77,0.33 3.26,-5.25 9.25,-12.71 5.88,-7.43 15.89,-16.56 29.34,-21.77 13.47,-5.19 27,-5.16 36.36,-3.61 9.44,1.49 15.04,3.96 15.39,3.19" /><path
         id="path134"
         style="fill:#33535f;fill-opacity:1;fill-rule:nonzero;stroke:none"
         d="m 2808.87,2226.57 c 0.15,-0.6 -4.84,-1.85 -11.66,1.72 -6.91,3.32 -13.49,12.53 -15.96,23.33 -2.97,10.75 -1.54,21.79 2.46,28.17 3.84,6.54 8.41,8.46 8.69,7.91 0.52,-0.62 -2.87,-3.45 -5.4,-9.55 -2.67,-6.02 -3.39,-15.32 -0.71,-25.24 2.37,-10.02 7.42,-17.85 12.86,-21.49 5.32,-3.82 9.77,-4.04 9.72,-4.85" /><path
         id="path136"
         style="fill:#f03d5f;fill-opacity:1;fill-rule:nonzero;stroke:none"
         d="m 1871.36,3493.08 c 0,0 -118.69,-260.9 -111.7,-305.21 7,-44.31 41.26,-220.95 41.26,-220.95 l 25.1,-287.57 c 0,0 448.32,54.35 457.65,54.35 9.32,0 -14,237.88 -14,237.88 l 68.27,457.21 c 0,0 -31.31,62.28 -172.49,83.84 -84.84,12.96 -294.09,-19.55 -294.09,-19.55" /><path
         id="path138"
         style="fill:#f03d5f;fill-opacity:1;fill-rule:nonzero;stroke:none"
         d="m 2198.69,3141.5 c 5.42,-38.5 15.64,-84.12 42.35,-132.8 8.54,-15.55 16.56,-37.33 30.75,-47.99 22.22,-16.68 54.09,-0.91 74.27,18.19 20.18,19.11 40.43,43.26 68.19,44.25 17.66,0.63 34.03,-8.63 51.33,-12.24 17.3,-3.61 39.75,1.92 43.79,19.12 2.33,9.89 -2.4,19.91 -6.89,29.02 -43.16,87.49 -74.12,170.16 -96.79,265.05 -4.53,18.96 -25.49,57.9 -35.12,74.85 -9.63,16.95 -35.83,41.43 -61.27,62.01" /><path
         id="path140"
         style="fill:#f03d5f;fill-opacity:1;fill-rule:nonzero;stroke:none"
         d="m 1955.58,3510.4 c -123.31,-4.38 -215.85,-85.89 -242.18,-144.74 -30.86,-68.99 -54.9,-152.43 -91.07,-218.79 -7.12,-13.04 -15.59,-25.74 -18.68,-40.28 -3.09,-14.53 0.8,-31.88 13.6,-39.44 18.57,-10.98 45.54,3.3 62.69,-9.8 9.43,-7.21 12.19,-20.3 20.26,-29.01 9.91,-10.69 25.73,-12.89 40.22,-14.46 27.77,-3 55.55,-6.01 83.33,-9.01" /><path
         id="path142"
         style="fill:#17282f;fill-opacity:1;fill-rule:nonzero;stroke:none"
         d="m 2171.36,3255.81 c -0.27,-0.12 -2.19,3.3 -4.8,9.9 -2.63,6.58 -5.59,16.49 -7.42,29.1 -3.84,24.9 -1.13,62.15 19.06,96.09 20.31,33.87 51.84,53.91 75.59,62.33 11.97,4.37 22.1,6.46 29.15,7.26 7.04,0.83 10.96,0.76 10.98,0.47 0.19,-1.08 -15.68,-1.75 -38.79,-11.16 -22.85,-9.09 -52.91,-28.97 -72.46,-61.57 -19.43,-32.66 -22.69,-68.54 -19.87,-92.98 2.66,-24.8 9.59,-39.09 8.56,-39.44" /><path
         id="path144"
         style="fill:#17282f;fill-opacity:1;fill-rule:nonzero;stroke:none"
         d="m 1832.08,3357.97 c 0.31,-0.18 -1.99,-4.82 -6.39,-13.02 -2.25,-4.06 -4.94,-9.07 -7.68,-15.08 -2.8,-5.98 -6.32,-12.6 -9.36,-20.34 -6.72,-15.17 -13.4,-33.79 -19.51,-54.82 -5.77,-21.13 -10.77,-44.74 -13.73,-69.85 -2.72,-25.15 -3.12,-49.28 -2.21,-71.17 1.25,-21.87 3.61,-41.51 6.77,-57.79 1.24,-8.22 3.19,-15.47 4.59,-21.92 1.33,-6.47 2.83,-11.95 4.12,-16.42 2.46,-8.96 3.66,-14 3.32,-14.11 -0.34,-0.12 -2.19,4.69 -5.26,13.53 -1.59,4.4 -3.39,9.83 -5,16.27 -1.68,6.43 -3.9,13.69 -5.38,21.93 -3.65,16.34 -6.42,36.15 -7.95,58.25 -1.19,22.12 -0.93,46.56 1.82,72.02 3,25.42 8.21,49.28 14.3,70.58 6.43,21.21 13.55,39.89 20.75,55 3.29,7.71 7.08,14.29 10.14,20.17 3.01,5.93 5.98,10.82 8.52,14.76 4.96,7.93 7.84,12.2 8.14,12.01" /><path
         id="path146"
         style="fill:#fafaf9;fill-opacity:1;fill-rule:nonzero;stroke:none"
         d="m 2502.08,3065.36 c 0.15,-0.07 -0.19,-1.06 -1.03,-2.92 -1.03,-1.71 -2.64,-4.38 -5.75,-6.8 -6,-5.04 -17.55,-8.71 -31.35,-7.03 -13.97,1.55 -28.49,9.64 -45.38,12.93 -16.99,3.78 -35.73,-3.97 -51.25,-16.62 -15.71,-12.53 -28.5,-27.84 -43.57,-38.14 -7.44,-5.15 -15.28,-9.37 -23.44,-11.13 -8.04,-1.66 -15.62,-1.83 -22.45,-1.35 -13.69,0.99 -24.47,4.94 -30.84,9.3 -3.18,2.22 -5.3,4.4 -6.48,6.05 -1.12,1.7 -1.62,2.61 -1.46,2.71 0.42,0.32 2.63,-3.37 9.01,-7.04 6.35,-3.61 16.78,-6.86 29.97,-7.34 6.56,-0.24 13.84,0.15 21.27,1.88 7.32,1.73 14.58,5.79 21.64,10.84 14.3,10.03 26.78,25.21 43.13,38.31 8.18,6.46 17.05,11.97 26.6,15.24 9.49,3.35 19.74,3.93 28.75,2.01 18,-3.87 32.04,-12.18 45,-14 12.93,-2.03 23.77,0.85 29.65,5.01 6,4.18 7.5,8.4 7.98,8.09" /><path
         id="path148"
         style="fill:#fafaf9;fill-opacity:1;fill-rule:nonzero;stroke:none"
         d="m 2473.41,3123.9 c 0.15,-0.04 0.01,-1.03 -0.65,-2.81 -0.71,-1.75 -2.19,-4.25 -4.95,-6.66 -5.41,-4.87 -16.36,-8.68 -29.23,-6.1 -12.72,2.18 -26,10.52 -41.81,11.29 -15.9,0.84 -33.06,-6.01 -48.54,-16.38 -15.57,-10.43 -28.98,-22.91 -42.88,-32.25 -13.7,-9.58 -28.26,-15.57 -41.03,-17 -12.75,-1.63 -23.31,0.73 -29.71,3.84 -6.48,3.09 -9.2,6.07 -9.05,6.24 0.28,0.4 3.4,-1.99 9.82,-4.36 6.35,-2.41 16.37,-4.08 28.41,-2.08 12.1,1.85 25.6,7.77 38.83,17.31 13.41,9.29 26.62,21.82 42.74,32.65 15.98,10.69 34.27,17.99 51.68,16.83 8.69,-0.42 16.45,-3.29 23.3,-5.91 6.86,-2.68 13.11,-5.21 19.02,-6.58 11.7,-2.83 21.93,0.13 27.18,4.08 5.43,4.02 6.38,8.16 6.87,7.89" /><path
         id="path150"
         style="fill:#fafaf9;fill-opacity:1;fill-rule:nonzero;stroke:none"
         d="m 1772.85,3047.84 c 0.19,-0.15 -1.85,-2.64 -7.18,-3.85 -5.2,-1.16 -13.67,-0.26 -21.44,5.75 -7.81,5.94 -13.26,16.21 -18.63,26.85 -5.35,10.42 -12.53,22.29 -25.42,25.47 -12.78,3.31 -25.9,0.02 -37.81,-1.96 -11.94,-2.1 -23.75,-2.57 -32.77,1.47 -8.9,3.85 -14.14,10.43 -15.9,15.47 -1.87,5.11 -0.91,8.18 -0.73,8.11 0.52,0.04 0.33,-2.94 2.59,-7.3 2.14,-4.31 7.23,-9.81 15.41,-12.87 8.08,-3.15 18.91,-2.48 30.56,-0.16 11.62,2.12 25.34,5.98 40.02,2.27 7.27,-1.88 13.68,-6.4 18.07,-11.74 4.48,-5.33 7.55,-11.13 10.26,-16.59 5.2,-10.92 9.99,-20.54 16.68,-26.17 6.58,-5.65 14.06,-7.06 18.81,-6.6 4.86,0.48 7.25,2.25 7.48,1.85" /><path
         id="path152"
         style="fill:#fafaf9;fill-opacity:1;fill-rule:nonzero;stroke:none"
         d="m 1757.7,3106.64 c 0.07,-0.26 -2.14,-1.14 -6.01,0.02 -3.85,1.14 -8.62,4.8 -12.43,10.59 -3.84,5.54 -6.83,13.33 -13.48,17.45 -6.65,4.29 -16.26,3.36 -26.11,1.81 -9.9,-1.79 -20.45,-2.21 -29.24,0.12 -8.89,2.07 -16.31,5.84 -21.86,9.78 -11.23,8.01 -15.05,15.95 -14.6,16.13 0.72,0.62 5.53,-6.3 16.61,-13.04 10.93,-6.87 28.61,-12.23 48.33,-7.84 9.76,1.5 20.93,2.78 29.46,-2.92 8.34,-5.79 10.69,-14.22 14.02,-19.56 3.12,-5.53 6.95,-9.12 10.05,-10.64 3.12,-1.56 5.25,-1.46 5.26,-1.9" /><path
         id="path154"
         style="fill:#fafaf9;fill-opacity:1;fill-rule:nonzero;stroke:none"
         d="m 2227.63,3055.1 c -0.1,-0.37 -6.34,1.21 -17.64,3.88 -11.3,2.63 -27.66,6.48 -48.05,10.23 -10.18,1.89 -21.38,3.79 -33.44,5.24 -12.02,1.32 -25.09,2.77 -38.38,1.53 -13.26,-1.36 -26.69,-6.53 -39.89,-13.08 -13.25,-6.61 -26.48,-14.68 -40.88,-21.73 -14.35,-7.02 -29.72,-12.28 -45.13,-13.06 -15.34,-0.89 -29.97,1.6 -43.4,4.81 -26.89,6.66 -50.09,15.23 -70.64,17.17 -20.44,2.53 -37.19,-0.32 -47.83,-4.52 -10.64,-4.3 -15.53,-8.71 -15.86,-8.23 -0.12,0.13 1.07,1.22 3.47,3.18 2.42,1.91 6.27,4.4 11.61,6.92 10.7,4.93 28.02,8.44 48.99,6.31 21.11,-1.52 44.89,-9.89 71.35,-16.15 13.25,-3.05 27.43,-5.32 42,-4.4 14.57,0.81 29.09,5.79 43.16,12.66 14.09,6.88 27.35,14.92 40.89,21.61 13.54,6.63 27.5,11.95 41.69,13.28 14.12,1.17 27.22,-0.51 39.4,-2.02 12.18,-1.65 23.41,-3.78 33.6,-5.9 20.41,-4.24 36.68,-8.65 47.86,-11.89 5.59,-1.63 9.9,-3.02 12.79,-4.03 2.89,-1.02 4.38,-1.64 4.33,-1.81" /><path
         id="path156"
         style="fill:#fafaf9;fill-opacity:1;fill-rule:nonzero;stroke:none"
         d="m 2237.89,3004.87 c -0.19,-0.35 -5.96,2.39 -16.6,6.86 -10.66,4.41 -26.14,10.76 -45.82,16.77 -9.82,2.97 -20.75,5.91 -32.57,7.31 -11.77,1.25 -24.52,-0.44 -37.17,-4.82 -25.52,-8.71 -49.69,-27.48 -79.64,-39.22 -15.01,-5.89 -30.95,-8.22 -46.03,-8.03 -15.12,0.14 -29.51,2.25 -43.01,4.65 -26.97,5.08 -50.9,10.4 -71.45,11.02 -20.49,0.97 -37,-2.16 -47.72,-6.09 -10.76,-3.9 -16.1,-7.57 -16.37,-7.12 -0.1,0.15 1.18,1.12 3.73,2.83 2.55,1.69 6.51,3.96 11.91,6.18 10.73,4.62 27.66,8.41 48.56,7.88 20.95,-0.16 45.4,-5.2 72.16,-9.97 26.56,-4.48 57.32,-8.08 86.37,3.52 28.92,11.26 53.35,30.03 79.94,38.89 13.2,4.45 26.8,6.09 39.21,4.58 12.32,-1.66 23.31,-4.87 33.19,-8.1 19.75,-6.53 35.09,-13.43 45.53,-18.43 5.22,-2.54 9.2,-4.64 11.86,-6.15 2.65,-1.52 3.99,-2.4 3.92,-2.56" /><path
         id="path158"
         style="fill:#17282f;fill-opacity:1;fill-rule:nonzero;stroke:none"
         d="m 2104.33,3022.72 c 0.03,-0.35 -2.54,-0.76 -7.25,-1.18 -4.71,-0.55 -11.6,-0.43 -20.02,0.5 -8.46,0.85 -18.38,3.17 -29,6.87 -10.53,3.95 -21.71,9.45 -32.44,16.79 -10.64,7.51 -19.69,16.07 -27.07,24.55 -7.18,8.67 -12.81,17.16 -16.56,24.78 -3.81,7.57 -6.33,13.99 -7.46,18.59 -1.25,4.56 -1.77,7.11 -1.42,7.21 0.94,0.3 3.86,-9.72 12.12,-24.03 4.04,-7.2 9.81,-15.19 16.94,-23.4 7.33,-8.03 16.15,-16.18 26.42,-23.42 10.36,-7.09 21.07,-12.51 31.16,-16.57 10.18,-3.82 19.68,-6.44 27.83,-7.72 16.3,-2.74 26.71,-1.98 26.75,-2.97" /><path
         id="path160"
         style="fill:#ba2c42;fill-opacity:1;fill-rule:nonzero;stroke:none"
         d="m 2085.88,2977.99 c -18.83,0 -37.86,5.95 -54.34,16.02 19.09,8.18 35.91,18.9 52.43,27.43 2.37,-0.15 4.56,-0.23 6.57,-0.23 2.49,0 4.68,0.12 6.54,0.33 4.71,0.42 7.28,0.83 7.25,1.18 -0.03,0.72 -5.6,0.51 -14.97,1.42 0.14,0.06 0.28,0.13 0.41,0.19 0.7,-0.05 1.4,-0.09 2.1,-0.13 9.17,-0.5 18.67,-0.23 27.13,-3.79 8.47,-3.56 15.63,-12.43 13.62,-21.39 -1.74,-7.76 -9.4,-12.63 -16.8,-15.53 -9.63,-3.76 -19.75,-5.5 -29.94,-5.5 m -59.62,19.45 c -5.2,3.59 -10.1,7.6 -14.59,11.96 -7.59,7.37 -14.16,15.58 -19.85,24.4 5.96,2.07 11.82,4.58 17.53,7.37 2.5,1.22 4.97,2.48 7.41,3.76 10.39,-6.96 21.14,-12.21 31.3,-16.02 9.7,-3.38 18.81,-5.6 26.76,-6.61 -15.58,-8.33 -31.28,-17.88 -48.56,-24.86 m -37.25,40.89 c -12.98,21.71 -20.94,46.72 -25.51,71.76 l 2.22,-4.25 c 2,-3.86 4.17,-7.62 6.5,-11.27 3.75,-7.51 9.3,-15.83 16.33,-24.32 6.53,-7.51 14.37,-15.08 23.46,-21.92 -1.64,-0.84 -3.28,-1.66 -4.94,-2.47 -5.95,-2.91 -11.98,-5.48 -18.06,-7.53" /><path
         id="path162"
         style="fill:#a4a6a5;fill-opacity:1;fill-rule:nonzero;stroke:none"
         d="m 1991.82,3033.8 c -0.97,1.5 -1.9,3 -2.81,4.53 6.08,2.05 12.11,4.62 18.06,7.53 1.66,0.81 3.3,1.63 4.94,2.47 1.18,-0.89 2.38,-1.77 3.61,-2.63 0.38,-0.26 0.76,-0.52 1.14,-0.77 -2.44,-1.28 -4.91,-2.54 -7.41,-3.76 -5.71,-2.79 -11.57,-5.3 -17.53,-7.37" /><path
         id="path164"
         style="fill:#ba2c42;fill-opacity:1;fill-rule:nonzero;stroke:none"
         d="m 2080.43,3025.24 c -0.93,0.14 -1.88,0.29 -2.85,0.45 -1.23,0.2 -2.5,0.42 -3.8,0.68 2.24,-0.42 4.49,-0.78 6.75,-1.08 -0.03,-0.02 -0.07,-0.04 -0.1,-0.05" /><path
         id="path166"
         style="fill:#a4a6a5;fill-opacity:1;fill-rule:nonzero;stroke:none"
         d="m 2031.54,2994.01 c -1.79,1.1 -3.55,2.24 -5.28,3.43 17.28,6.98 32.98,16.53 48.56,24.86 0.76,-0.1 1.5,-0.18 2.24,-0.26 2.44,-0.27 4.75,-0.47 6.91,-0.6 -16.52,-8.53 -33.34,-19.25 -52.43,-27.43 m 57.82,30.13 c -2.68,0.26 -5.67,0.61 -8.93,1.1 0.03,0.01 0.07,0.03 0.1,0.05 3.07,-0.42 6.15,-0.74 9.24,-0.96 -0.13,-0.06 -0.27,-0.13 -0.41,-0.19" /><path
         id="path168"
         style="fill:#0f191d;fill-opacity:1;fill-rule:nonzero;stroke:none"
         d="m 2090.54,3021.21 c -2.01,0 -4.2,0.08 -6.57,0.23 -2.16,0.13 -4.47,0.33 -6.91,0.6 -0.74,0.08 -1.48,0.16 -2.24,0.26 -7.95,1.01 -17.06,3.23 -26.76,6.61 -10.16,3.81 -20.91,9.06 -31.3,16.02 -0.38,0.25 -0.76,0.51 -1.14,0.77 -1.23,0.86 -2.43,1.74 -3.61,2.63 -9.09,6.84 -16.93,14.41 -23.46,21.92 -7.03,8.49 -12.58,16.81 -16.33,24.32 22.56,-35.31 60.37,-60.61 101.56,-68.2 1.3,-0.26 2.57,-0.48 3.8,-0.68 0.97,-0.16 1.92,-0.31 2.85,-0.45 3.26,-0.49 6.25,-0.84 8.93,-1.1 9.37,-0.91 14.94,-0.7 14.97,-1.42 0.03,-0.35 -2.54,-0.76 -7.25,-1.18 -1.86,-0.21 -4.05,-0.33 -6.54,-0.33" /><path
         id="path170"
         style="fill:#17282f;fill-opacity:1;fill-rule:nonzero;stroke:none"
         d="m 2256.71,2961.69 c -0.34,-0.11 -1.86,3.31 -4.33,9.61 -2.48,6.3 -5.85,15.49 -9.84,26.9 -8,22.82 -18.35,54.6 -28.72,90.02 -10.34,35.44 -18.72,67.79 -24.27,91.33 -2.78,11.77 -4.89,21.33 -6.19,27.97 -1.31,6.63 -1.87,10.34 -1.52,10.43 0.35,0.09 1.57,-3.46 3.49,-9.95 2.15,-7.61 4.75,-16.79 7.79,-27.53 6.46,-23.27 15.37,-55.42 25.7,-90.79 10.35,-35.36 20.12,-67.24 27.21,-90.33 3.23,-10.69 5.98,-19.82 8.26,-27.4 1.89,-6.49 2.77,-10.15 2.42,-10.26" /><path
         id="path172"
         style="fill:#f8a58d;fill-opacity:1;fill-rule:nonzero;stroke:none"
         d="m 1805.27,2675.41 c 0,0 86.48,92.56 162.03,110.77 75.54,18.22 346.45,113.83 346.45,113.83 l -17.09,53.9 c 17.22,1.08 33.23,10.63 45.46,22.82 l 17.5,17.46 c 23.81,25.95 52.47,40.27 94.11,25.89 l 26.16,-7.86 27.38,-79.8 c 26.89,-79.46 -25.21,-163.75 -108.32,-175.2 l -593.68,-81.81" /><path
         id="path174"
         style="fill:#f68260;fill-opacity:1;fill-rule:nonzero;stroke:none"
         d="m 2426.07,2888.51 c -0.66,-1.51 -23.69,10.23 -54.71,13.29 -30.99,3.45 -55.95,-3.26 -56.29,-1.64 -0.58,1.1 24.63,10.36 56.83,6.83 32.22,-3.23 54.98,-17.52 54.17,-18.48" /><path
         id="path176"
         style="fill:#17282f;fill-opacity:1;fill-rule:nonzero;stroke:none"
         d="m 1818.31,3941.15 c -7.82,125.34 156.35,213.83 267.98,182.31 104.89,-29.64 149.63,-81.84 166.9,-152 17.27,-70.19 16.43,-146.21 -11.07,-213.06 -13.56,-32.96 -37.99,-66.45 -73.39,-70.58" /><path
         id="path178"
         style="fill:#f8a58d;fill-opacity:1;fill-rule:nonzero;stroke:none"
         d="m 2153.18,4018.29 c 18.4,-1.95 32.26,-17.66 31.89,-36.16 l -20.2,-481.47 c -0.76,-56.87 -83.8,-89 -144.68,-87.72 -61.48,1.3 -63.53,31.44 -64.42,85.54 -1.48,90.37 -1.45,124.29 -1.48,123.77 0,0 -77.68,12.9 -93.78,114.26 -8,50.4 -5.47,133.04 -1.21,200.6 3.83,60.8 44.11,135.4 104.7,128.99 l 189.18,-47.81" /><path
         id="path180"
         style="fill:#17282f;fill-opacity:1;fill-rule:nonzero;stroke:none"
         d="m 1885.63,3871.5 c -0.25,-6.86 5.37,-12.73 12.53,-13.11 7.15,-0.39 13.16,4.85 13.4,11.72 0.24,6.85 -5.37,12.73 -12.52,13.12 -7.16,0.38 -13.17,-4.87 -13.41,-11.73" /><path
         id="path182"
         style="fill:#17282f;fill-opacity:1;fill-rule:nonzero;stroke:none"
         d="m 1877.22,3894.11 c 1.61,-1.69 11.46,5.6 25.45,5.56 13.97,0.16 24.24,-7.03 25.76,-5.32 0.74,0.76 -0.9,3.82 -5.37,7.08 -4.4,3.23 -11.9,6.38 -20.62,6.35 -8.71,-0.05 -16.04,-3.26 -20.25,-6.54 -4.3,-3.3 -5.76,-6.37 -4.97,-7.13" /><path
         id="path184"
         style="fill:#17282f;fill-opacity:1;fill-rule:nonzero;stroke:none"
         d="m 2022.37,3871.5 c -0.25,-6.86 5.37,-12.73 12.53,-13.11 7.15,-0.39 13.16,4.85 13.4,11.72 0.24,6.85 -5.37,12.73 -12.52,13.12 -7.17,0.38 -13.17,-4.87 -13.41,-11.73" /><path
         id="path186"
         style="fill:#17282f;fill-opacity:1;fill-rule:nonzero;stroke:none"
         d="m 2014.71,3891.5 c 1.62,-1.69 11.48,5.59 25.45,5.56 13.97,0.16 24.24,-7.03 25.76,-5.32 0.74,0.76 -0.88,3.81 -5.37,7.07 -4.4,3.24 -11.9,6.39 -20.62,6.36 -8.71,-0.05 -16.04,-3.26 -20.25,-6.54 -4.29,-3.3 -5.76,-6.36 -4.97,-7.13" /><path
         id="path188"
         style="fill:#17282f;fill-opacity:1;fill-rule:nonzero;stroke:none"
         d="m 1963.95,3787.77 c 0.06,0.8 -8.63,2.3 -22.72,4.11 -3.57,0.36 -6.95,1.07 -7.55,3.51 -0.84,2.58 0.65,6.43 2.38,10.59 3.36,8.64 6.88,17.7 10.57,27.19 14.66,38.72 25.28,70.56 23.72,71.14 -1.56,0.58 -14.73,-30.34 -29.39,-69.06 -3.53,-9.55 -6.91,-18.66 -10.12,-27.36 -1.35,-4.06 -3.68,-8.66 -1.85,-14.02 0.96,-2.67 3.58,-4.6 5.87,-5.22 2.28,-0.7 4.3,-0.74 6.06,-0.85 14.18,-0.76 22.98,-0.82 23.03,-0.03" /><path
         id="path190"
         style="fill:#f68260;fill-opacity:1;fill-rule:nonzero;stroke:none"
         d="m 1954.29,3622.25 c 0,0 68.18,-4.39 135.74,36.21 0,0 -32.93,-69.62 -134.37,-60.14 l -1.37,23.93" /><path
         id="path192"
         style="fill:#f68260;fill-opacity:1;fill-rule:nonzero;stroke:none"
         d="m 1969.86,3754.07 c 5.03,6.64 13.85,10.3 22.6,9.36 6.07,-0.66 12.2,-3.58 15.89,-8.53 3.69,-4.94 4.46,-11.96 1.11,-16.67 -3.78,-5.31 -11.67,-6.53 -18.34,-4.64 -6.68,1.9 -12.42,6.3 -17.88,10.67 -1.51,1.22 -3.04,2.48 -3.99,4.14 -0.94,1.66 -1.14,3.83 0.02,5.21" /><path
         id="path194"
         style="fill:#17282f;fill-opacity:1;fill-rule:nonzero;stroke:none"
         d="m 2005.11,3778.1 c -2.27,0.13 -2.3,-15.05 -15.29,-25.83 -12.97,-10.81 -29.16,-9.1 -29.28,-11.23 -0.21,-0.95 3.61,-2.95 10.43,-3.13 6.71,-0.23 16.49,1.92 24.44,8.52 7.93,6.6 11.34,15.42 11.86,21.65 0.58,6.35 -1.12,10.11 -2.16,10.02" /><path
         id="path196"
         style="fill:#17282f;fill-opacity:1;fill-rule:nonzero;stroke:none"
         d="m 2008.42,3915.99 c 1.38,-3.8 15.35,-2 31.75,-3.97 16.46,-1.66 29.69,-6.46 31.87,-3.05 0.97,1.64 -1.34,5.21 -6.69,8.89 -5.31,3.68 -13.77,7.17 -23.62,8.27 -9.85,1.08 -18.87,-0.49 -24.84,-2.92 -6.03,-2.42 -9.06,-5.41 -8.47,-7.22" /><path
         id="path198"
         style="fill:#17282f;fill-opacity:1;fill-rule:nonzero;stroke:none"
         d="m 1882.37,3934.59 c 2.46,-3.17 12.09,0.12 23.68,0.28 11.58,0.56 21.4,-2.13 23.66,1.19 0.99,1.62 -0.56,4.79 -4.85,7.8 -4.22,3 -11.28,5.44 -19.25,5.21 -7.96,-0.25 -14.86,-3.13 -18.89,-6.39 -4.09,-3.26 -5.43,-6.54 -4.35,-8.09" /><path
         id="path200"
         style="fill:#17282f;fill-opacity:1;fill-rule:nonzero;stroke:none"
         d="m 2014.51,4099.86 c -36.94,-1.22 -64.96,-12.46 -97.38,-30.2 -32.42,-17.74 -59.53,-47.02 -69.51,-82.6 -2.12,-7.55 -3.33,-16.16 0.81,-22.83 5.46,-8.8 18.36,-10.26 27.8,-5.99 9.43,4.27 16.21,12.71 22.61,20.85 4.79,-18.6 23.24,-32.73 42.44,-32.52 19.2,0.22 37.33,14.75 41.71,33.46 0.15,-19.46 19.62,-35.55 39.07,-34.85 19.44,0.7 36.66,15.7 43.14,34.05 3.61,-17.29 7.47,-35.16 17.82,-49.48 10.35,-14.32 29.09,-24.16 45.89,-18.69 -2.38,-15.11 -4.7,-31.01 0.67,-45.33 5.35,-14.32 30.23,-324.57 44.69,-319.6 14.04,4.83 10.53,320.1 13.81,334.58 6.33,27.92 11.76,56.33 10.87,84.95 -0.9,28.61 -8.55,57.71 -26.09,80.33 -18.16,23.4 -45.66,38.24 -74.29,45.81 -28.64,7.56 -58.6,8.4 -88.21,8.02" /><path
         id="path202"
         style="fill:#17282f;fill-opacity:1;fill-rule:nonzero;stroke:none"
         d="m 1661.77,3698.42 c -0.29,-0.19 -1.16,1.87 -4.04,4.69 -2.78,2.83 -7.82,6.37 -15.3,7.77 -7.29,1.33 -17.37,0.64 -25.87,-5.75 -8.47,-6.28 -13.46,-18.93 -11.66,-32.16 0.89,-6.61 3.36,-13.35 7.64,-19.17 4.36,-5.72 10.43,-10.63 17.61,-13.8 14.33,-6.57 32.52,-6.71 48.92,0.32 16.51,6.93 31.23,19.76 43.07,35.43 11.88,15.69 21.19,34.16 27.67,54.14 13.2,40.04 16.81,80.58 22.35,116.93 5.35,36.5 13.77,69.09 25.58,94.58 11.47,25.7 26.77,43.34 38.57,53.53 6.12,4.91 10.99,8.55 14.64,10.49 3.54,2.11 5.43,3.14 5.52,2.98 0.36,-0.56 -7.33,-4.64 -18.81,-14.98 -11.2,-10.5 -25.71,-28.08 -36.56,-53.53 -11.18,-25.25 -19.14,-57.48 -24.19,-93.76 -5.27,-36.24 -8.71,-77.03 -22.16,-117.89 -6.61,-20.38 -16.21,-39.42 -28.57,-55.59 -12.27,-16.13 -27.69,-29.52 -45.28,-36.76 -17.49,-7.36 -37.17,-7.12 -52.56,0.19 -7.74,3.54 -14.31,8.94 -19.04,15.35 -4.65,6.51 -7.21,13.9 -8.05,21.09 -1.72,14.38 3.97,28.18 13.57,34.94 9.6,6.81 20.35,7.1 28.02,5.41 7.88,-1.8 13.02,-5.87 15.66,-9.05 2.75,-3.18 3.27,-5.4 3.27,-5.4" /><path
         id="path204"
         style="fill:#17282f;fill-opacity:1;fill-rule:nonzero;stroke:none"
         d="m 2199.29,3532.3 c -0.26,0.54 5.93,3.15 15.7,10.01 9.75,6.81 22.71,18.6 34.37,36.41 11.57,17.79 21.46,41.68 25.66,69.48 4.25,27.8 2.22,59.15 -3.88,91.13 -6.21,32.06 -15.37,61.94 -23.32,89.25 -8.03,27.29 -14.66,52.15 -18.65,73.38 -4.02,21.23 -5.58,38.71 -5.8,50.78 -0.08,6.04 -0.03,10.72 0.2,13.89 0.19,3.17 0.37,4.83 0.55,4.83 0.47,-0.01 0.41,-6.67 1.28,-18.62 0.84,-11.96 2.94,-29.2 7.37,-50.16 4.43,-20.96 11.38,-45.55 19.65,-72.74 8.19,-27.2 17.54,-57.19 23.83,-89.64 6.19,-32.38 8.14,-64.34 3.51,-92.84 -4.57,-28.46 -15.08,-52.81 -27.33,-70.78 -12.35,-18 -26.04,-29.64 -36.31,-36.05 -5.19,-3.16 -9.31,-5.42 -12.29,-6.59 -2.91,-1.3 -4.46,-1.9 -4.54,-1.74" /><path
         id="path206"
         style="fill:#17282f;fill-opacity:1;fill-rule:nonzero;stroke:none"
         d="m 2217.41,3597.34 c 0.07,-0.16 -1.15,-0.76 -3.57,-1.75 -2.41,-0.95 -6.13,-2 -11.06,-2.73 -9.77,-1.25 -24.89,-0.09 -40.71,8.5 -15.87,8.31 -31.05,25.22 -39.17,47.41 -8.5,22.1 -10.29,48.51 -7.85,75.18 2.4,26.78 7.27,51.68 9.47,74.57 2.44,22.89 3.51,43.61 3.91,61.02 0.41,17.42 0.15,31.52 -0.03,41.28 -0.18,9.75 -0.31,15.16 0.08,15.18 0.32,0.03 1.14,-5.33 1.95,-15.08 0.81,-9.75 1.63,-23.9 1.68,-41.42 0.07,-17.5 -0.62,-38.38 -2.82,-61.45 -1.96,-23.13 -6.7,-48.21 -9.05,-74.55 -2.4,-26.26 -0.76,-51.75 7.16,-73.05 7.6,-21.4 21.58,-37.53 36.48,-45.88 14.86,-8.6 29.22,-10.29 38.71,-9.68 9.59,0.76 14.65,2.95 14.82,2.45" /><path
         id="path208"
         style="fill:#33535f;fill-opacity:1;fill-rule:nonzero;stroke:none"
         d="m 1563.37,3505.98 c 0,0 -0.37,3.42 1.51,9.57 1.9,6.06 6.81,14.74 16.68,22.05 9.62,7.41 24.09,13.34 41.34,14.38 17.18,1.57 36.69,-0.93 57.83,0.47 21.08,1.69 43.73,8.81 64.88,22.01 20.96,13.38 40.72,32.08 56.2,55.49 15.71,23.23 26.77,51.04 33.29,80.92 6.58,29.9 8.66,61.81 7.97,94.35 -0.53,32.6 -4.51,64.28 -6.49,95.2 -1.96,30.82 -1.75,61.28 5.64,89.2 7.11,27.9 22.16,52.31 41.59,69.06 19.16,17.1 41.65,27.24 62.9,31.57 21.39,4.31 41.49,2.63 58.1,-1.69 16.68,-4.36 30.13,-11.02 40.2,-17.66 10.09,-6.65 17.06,-13 21.44,-17.58 2.25,-2.23 3.72,-4.17 4.8,-5.38 1.03,-1.25 1.53,-1.91 1.46,-1.98 -0.5,-0.57 -8.55,10.51 -28.79,23.23 -10.08,6.28 -23.43,12.54 -39.81,16.54 -16.34,3.97 -35.94,5.33 -56.64,0.91 -20.6,-4.43 -42.35,-14.48 -60.78,-31.19 -18.72,-16.39 -33.02,-39.9 -39.83,-67.04 -7.05,-27.15 -7.21,-57.06 -5.19,-87.67 2.03,-30.66 6.07,-62.51 6.61,-95.42 0.7,-32.82 -1.43,-65.14 -8.2,-95.55 -6.69,-30.35 -18.09,-58.78 -34.29,-82.5 -15.95,-23.87 -36.28,-42.91 -57.9,-56.47 -21.8,-13.4 -45.21,-20.53 -66.9,-22.02 -21.72,-1.17 -41.03,1.58 -57.88,0.3 -16.89,-0.77 -30.79,-6.18 -40.36,-13.12 -9.72,-6.82 -14.71,-14.98 -16.88,-20.76 -2.14,-5.86 -2.18,-9.26 -2.5,-9.22" /><path
         id="path210"
         style="fill:#33535f;fill-opacity:1;fill-rule:nonzero;stroke:none"
         d="m 2064.65,4121.2 c 0.35,0.51 4.92,-1.76 10.28,-7.87 5.32,-5.99 11.06,-16.32 12.14,-28.89 1.06,-12.58 -2.85,-23.73 -7.09,-30.54 -4.25,-6.92 -8.37,-9.93 -8.8,-9.49 -0.61,0.54 2.41,4.34 5.54,11.22 3.16,6.8 6.11,17.05 5.16,28.37 -0.98,11.31 -5.61,20.91 -9.87,27.08 -4.26,6.25 -7.87,9.49 -7.36,10.12" /><path
         id="path212"
         style="fill:#33535f;fill-opacity:1;fill-rule:nonzero;stroke:none"
         d="m 2264.35,3861.81 c -0.4,-0.04 -1.16,4.36 -2.68,12.28 -1.51,7.93 -3.7,19.4 -6.71,33.5 -3.04,14.09 -6.85,30.84 -11.81,49.21 -2.55,9.16 -5.34,18.75 -8.8,28.42 -3.38,9.77 -7.85,19.08 -14.45,27.74 -12.78,17.4 -29.7,30.34 -47.04,37.14 -17.37,6.92 -34.8,7.37 -48.64,4.69 -13.97,-2.56 -24.36,-8.06 -30.96,-12.45 -6.61,-4.46 -9.78,-7.66 -10.11,-7.32 -0.13,0.12 0.55,1.02 1.99,2.62 1.4,1.63 3.72,3.81 6.94,6.35 6.41,5.02 16.92,11.26 31.4,14.41 14.31,3.27 32.71,3.21 51.11,-3.83 18.35,-6.89 36.17,-20.36 49.51,-38.52 6.82,-8.9 11.74,-19.21 15.06,-29.11 3.46,-9.92 6.18,-19.63 8.63,-28.91 4.74,-18.58 8.19,-35.48 10.78,-49.73 2.57,-14.25 4.21,-25.85 5.1,-33.91 0.92,-8.04 0.99,-12.55 0.68,-12.58" /><path
         id="path214"
         style="fill:#33535f;fill-opacity:1;fill-rule:nonzero;stroke:none"
         d="m 2075.06,4040.47 c -0.13,-0.76 -12.68,1.52 -32.02,7.74 -9.69,2.92 -21.19,6.6 -34.22,8.37 -12.96,1.88 -27.57,0.77 -41.67,-4.62 -14.08,-5.34 -25.91,-14.14 -34.26,-24.12 -8.42,-9.98 -13.47,-20.94 -16.29,-30.43 -5.63,-19.23 -3.22,-32.07 -4.26,-32.07 -0.29,-0.04 -1.17,3.04 -1.61,8.78 -0.4,5.72 -0.17,14.18 2.32,24.26 2.48,10.04 7.41,21.73 16.14,32.5 8.65,10.78 21.17,20.28 36.11,25.96 14.92,5.73 30.68,6.74 44.2,4.48 13.58,-2.11 25.12,-6.25 34.7,-9.61 19.03,-7.11 30.98,-10.57 30.86,-11.24" /><path
         id="path216"
         style="fill:#17282f;fill-opacity:1;fill-rule:nonzero;stroke:none"
         d="m 4088.26,649.711 c 8.85,30.68 27.8,60.328 57.12,72.961 30.49,13.148 65.82,5.656 97.04,-5.684 31.21,-11.34 61.85,-26.508 95,-28.547 33.14,-2.05 70.55,13.668 80.49,45.36 9.32,29.789 -8.64,61.558 -31.14,83.211 -47.25,45.488 -118.27,64.789 -182.05,49.468 -63.78,-15.308 -118.29,-64.742 -139.75,-126.73" /><path
         id="path218"
         style="fill:#33535f;fill-opacity:1;fill-rule:nonzero;stroke:none"
         d="m 3825.65,516.559 c -48.62,46.203 -46.2,126.621 -21.94,189.152 24.25,62.539 77.2,110.559 136.34,142.199 114.63,61.352 257.93,65.988 376.3,12.199 -58.16,-1.929 -114.38,-34.949 -144.4,-84.8 -26.66,-44.258 -32.58,-97.969 -54.59,-144.707 -24.53,-52.071 -69.55,-94.141 -123.15,-115.09 -53.61,-20.961 -115.22,-20.571 -168.56,1.047" /><path
         id="path220"
         style="fill:#33535f;fill-opacity:1;fill-rule:nonzero;stroke:none"
         d="m 3802.28,794.109 c -53.84,63.551 -61,165.582 -53.07,248.491 7.92,82.91 27.14,166.36 14.06,248.62 -7.75,48.73 -26.65,95.26 -33.04,144.19 -6.39,48.93 2.67,104.27 40.58,135.85 43.57,36.3 112.19,27.73 157.53,-6.35 45.32,-34.08 71.59,-87.63 90.78,-141 42.17,-117.25 57.64,-247.27 23,-366.96 -34.63,-119.7 -115.91,-226.712 -235.16,-262.841" /><path
         id="path222"
         style="fill:#17282f;fill-opacity:1;fill-rule:nonzero;stroke:none"
         d="m 3776.44,272.672 c -0.18,0 -0.27,2.519 -0.28,7.328 0.04,4.801 -0.05,11.891 0.33,21 0.64,18.238 2.35,44.609 6.41,77.012 4.07,32.367 10.45,70.777 20.61,112.758 10.01,42.082 27.17,86.941 51.45,130.609 24.35,43.672 54.07,81.359 84.13,112.422 30.13,31.07 60.97,55.238 88.22,73.258 13.46,9.293 26.48,16.332 37.7,22.863 11.5,6.008 21.53,10.937 29.75,14.879 8.05,3.347 14.5,6.051 19.41,8.09 4.46,1.789 6.82,2.648 6.89,2.48 0.07,-0.172 -2.17,-1.351 -6.47,-3.449 -4.8,-2.262 -11.1,-5.231 -18.95,-8.942 -8.06,-4.21 -17.91,-9.39 -29.22,-15.609 -11,-6.73 -23.82,-13.941 -37.06,-23.371 -26.8,-18.281 -57.13,-42.551 -86.82,-73.531 -29.61,-30.969 -58.92,-68.391 -83.04,-111.637 -49.46,-86.523 -63.06,-177.512 -72.95,-241.312 -4.5,-32.219 -6.78,-58.461 -8.04,-76.622 -0.54,-8.679 -0.97,-15.636 -1.3,-20.929 -0.33,-4.789 -0.59,-7.297 -0.77,-7.297" /><path
         id="path224"
         style="fill:#17282f;fill-opacity:1;fill-rule:nonzero;stroke:none"
         d="m 3312.06,1044.83 c -99.62,-60.111 -99.31,-114.81 -82.68,-166.451 16.64,-51.629 77.77,-87.5 128.47,-68.168 28.64,10.93 49.4,35.828 67.13,60.848 17.72,25.031 34.38,51.82 59.23,69.793 24.84,17.98 60.85,24.847 85.82,7.039" /><path
         id="path226"
         style="fill:#33535f;fill-opacity:1;fill-rule:nonzero;stroke:none"
         d="m 3237.48,978.922 c 26.04,35.988 90.39,46.408 131.02,28.458 40.63,-17.958 70.39,-53.571 97.03,-89.118 26.64,-35.551 52.57,-73.102 89.48,-97.821 36.89,-24.742 88.44,-33.703 125.21,-8.781 24.16,16.371 38.16,44.809 42.54,73.66 4.38,28.84 0.16,58.301 -5.85,86.86 -8.79,41.76 -23.13,85.4 -56.57,111.94 -37.26,29.59 -88.96,30.99 -136.51,29.43 -54.57,-1.78 -109.94,-5.88 -161.15,-24.79 -51.21,-18.92 -103.47,-59.76 -125.2,-109.838" /><path
         id="path228"
         style="fill:#17282f;fill-opacity:1;fill-rule:nonzero;stroke:none"
         d="m 3693.65,352.449 c -0.19,-0.008 -0.41,2.961 -0.69,8.61 -0.22,6.121 -0.53,14.363 -0.92,24.722 -0.67,21.981 -1.59,52.91 -2.74,90.93 -1.24,38.379 -2.83,84.07 -5.61,134.738 -2.86,50.653 -6.63,106.371 -14.32,164.332 -3.91,28.938 -8.48,57.25 -16.48,83.418 -8.06,26.211 -18.8,50.629 -30.48,72.992 -23.34,44.879 -52.47,80.619 -80.44,106.589 -28.21,25.84 -55.22,41.64 -74.43,50.89 -9.58,4.8 -17.35,7.79 -22.62,9.8 -5.25,2.09 -7.98,3.27 -7.93,3.45 0.06,0.17 2.9,-0.69 8.28,-2.46 5.41,-1.7 13.33,-4.4 23.11,-8.95 19.62,-8.75 47.22,-24.24 76.07,-50.01 28.59,-25.9 58.37,-61.82 82.2,-107.07 11.93,-22.559 22.85,-47.129 31.11,-73.719 8.23,-26.711 12.84,-55.141 16.78,-84.231 7.71,-58.23 11.33,-114.039 13.94,-164.781 2.52,-50.75 3.73,-96.488 4.5,-134.898 0.76,-38.41 1.02,-69.5 1.08,-90.981 -0.02,-10.371 -0.03,-18.621 -0.04,-24.742 -0.07,-5.648 -0.2,-8.629 -0.37,-8.629" /><path
         id="path230"
         style="fill:#17282f;fill-opacity:1;fill-rule:nonzero;stroke:none"
         d="m 3729.49,307.441 c 0,0 -5.67,14.758 -11.06,42.75 -5.23,27.95 -9.18,69.399 -4.68,120.231 4.22,50.816 17.2,110.457 37.9,174.449 20.43,64.109 48.17,132.66 71.87,206.301 11.76,36.859 21.75,73.308 28.6,109.098 6.95,35.769 11.34,70.71 14.15,104.1 5.59,66.81 4.84,127.35 3.25,178.05 -1.69,50.72 -4.35,91.75 -5.98,120.1 -0.79,13.88 -1.42,24.81 -1.85,32.65 -0.15,3.5 -0.27,6.3 -0.37,8.51 -0.04,1.91 -0.03,2.9 0.06,2.91 0.09,0 0.25,-0.97 0.47,-2.87 0.24,-2.2 0.52,-4.99 0.88,-8.47 0.68,-7.82 1.63,-18.73 2.83,-32.59 2.26,-28.32 5.48,-69.31 7.64,-120.1 2.06,-50.76 3.21,-111.46 -2.15,-178.58 -2.68,-33.54 -7,-68.679 -13.93,-104.679 -6.82,-36.039 -16.84,-72.731 -28.64,-109.711 -23.8,-73.93 -51.66,-142.371 -72.27,-206.192 -20.86,-63.687 -34.12,-122.859 -38.79,-173.308 -4.93,-50.449 -1.58,-91.629 3.02,-119.551 2.42,-13.949 4.62,-24.75 6.57,-31.961 0.82,-3.398 1.46,-6.117 1.98,-8.269 0.41,-1.868 0.59,-2.848 0.5,-2.868" /><path
         id="path232"
         style="fill:#17282f;fill-opacity:1;fill-rule:nonzero;stroke:none"
         d="m 3976.45,262.422 h -467.72 l -10.69,90.027 h 478.41 v -90.027" /><path
         id="path234"
         style="fill:#17282f;fill-opacity:1;fill-rule:nonzero;stroke:none"
         d="M 3558.91,272.672 3617.39,2.60156 h 254.16 l 54.71,270.07044 h -367.35" /><path
         id="path236"
         style="fill:#33535f;fill-opacity:1;fill-rule:nonzero;stroke:none"
         d="m 3976.44,262.422 c 0,-1.442 -102.84,-2.313 -229.66,-1.961 -126.86,0.359 -229.66,1.809 -229.66,3.25 0,1.43 102.82,2.309 229.68,1.961 126.82,-0.363 229.65,-1.813 229.64,-3.25" /><path
         id="path238"
         style="fill:#33535f;fill-opacity:1;fill-rule:nonzero;stroke:none"
         d="m 3896.17,129.121 c -0.67,-0.98 -13.93,12.551 -41.29,23.359 -13.58,5.372 -30.73,9.54 -50,9.961 -19.3,0.61 -40.24,-4 -61.45,-11.312 -21.31,-7.207 -41.22,-15.578 -60.66,-20.199 -19.54,-4.192 -37.71,-3.852 -52.51,-1.508 -14.84,2.367 -26.34,6.808 -33.69,10.797 -3.63,2.101 -6.41,3.801 -8.1,5.23 -1.75,1.34 -2.6,2.11 -2.5,2.25 0.39,0.93 15.43,-11.109 44.81,-14.64 14.46,-1.821 32.16,-1.739 50.92,2.543 18.67,4.687 38.57,13.179 60.06,20.457 21.44,7.402 43.26,12.082 63.25,11.171 19.93,-0.699 37.52,-5.398 51.26,-11.332 13.86,-5.789 23.91,-12.808 30.46,-17.91 3.3,-2.578 5.7,-4.758 7.23,-6.328 1.57,-1.531 2.33,-2.398 2.21,-2.539" /><path
         id="path240"
         style="fill:#ffffff;fill-opacity:1;fill-rule:nonzero;stroke:none"
         d="m 3892.62,111.082 c -0.68,-0.98 -13.44,12.129 -39.66,23.059 -13.04,5.347 -29.59,9.5 -48.21,9.839 -18.64,0.5 -38.91,-3.73 -59.44,-10.718 -20.59,-6.883 -39.93,-14.871 -58.44,-19.821 -18.48,-5.043 -35.94,-6.781 -50.46,-5.589 -14.55,1.039 -25.9,5.199 -33.04,8.957 -3.53,2.031 -6.21,3.671 -7.85,5.05 -1.68,1.301 -2.51,2.051 -2.4,2.2 0.28,0.41 3.93,-2.168 11.12,-5.418 7.24,-3.11 18.3,-6.559 32.41,-7.121 14.06,-0.68 30.95,1.371 48.94,6.531 18.04,5.097 37.22,13.168 58.08,20.148 20.76,7.082 41.88,11.371 61.2,10.582 19.29,-0.621 36.32,-5.312 49.52,-11.25 13.32,-5.851 22.91,-12.781 29.19,-17.801 3.14,-2.519 5.44,-4.648 6.92,-6.171 1.51,-1.5 2.24,-2.34 2.12,-2.477" /><path
         id="path242"
         style="fill:#ffffff;fill-opacity:1;fill-rule:nonzero;stroke:none"
         d="m 3900.81,147.02 c -0.65,-0.911 -14.43,12.781 -42.41,24.691 -13.89,5.871 -31.4,11.07 -51.26,12.23 -19.86,1.379 -41.5,-3.703 -63.39,-11.203 -22.04,-7.379 -42.48,-16.347 -62.83,-20.488 -20.32,-3.66 -38.97,-2.5 -54.21,-0.008 -15.24,2.68 -27.13,7.067 -34.77,11.137 -3.77,2.133 -6.65,3.84 -8.42,5.301 -1.81,1.379 -2.69,2.172 -2.59,2.312 0.29,0.399 4.17,-2.32 11.89,-5.793 7.73,-3.398 19.49,-7.148 34.46,-9.308 14.93,-1.993 33.22,-2.711 52.74,1.078 19.33,4.172 39.87,13.242 62.05,20.703 22.1,7.578 44.65,12.769 65.37,11.066 20.57,-1.476 38.43,-7.226 52.44,-13.656 14.12,-6.352 24.42,-13.621 31.18,-18.91 3.38,-2.692 5.87,-4.902 7.46,-6.531 1.61,-1.59 2.4,-2.481 2.29,-2.621" /><path
         id="path244"
         style="fill:#f03d5f;fill-opacity:1;fill-rule:nonzero;stroke:none"
         d="m 631.348,434.398 c -20.16,-28.796 -59.344,-19.25 -77.512,-1.679 -18.172,17.57 -25.852,43.051 -32.84,67.351 -15.973,55.5 -32.074,113.731 -20.199,170.25 3.551,16.891 9.871,33.75 21.742,46.289 11.879,12.532 30.133,19.993 46.828,15.582 19.762,-5.222 32.039,-24.57 40.914,-42.98 26.086,-54.109 39.903,-114.09 40.106,-174.172 0.097,-28.051 -3.211,-57.469 -19.039,-80.641" /><path
         id="path246"
         style="fill:#da314b;fill-opacity:1;fill-rule:nonzero;stroke:none"
         d="m 595.461,416.051 c -15.805,0 -31.793,7.16 -41.625,16.668 -18.172,17.57 -25.852,43.051 -32.84,67.351 -12.101,42.051 -24.281,85.68 -24.305,128.95 -0.003,13.82 1.231,27.609 4.106,41.3 3.551,16.891 9.871,33.75 21.742,46.289 9.535,10.063 23.188,16.852 36.84,16.852 3.351,0 6.699,-0.402 9.988,-1.27 19.762,-5.222 32.039,-24.57 40.914,-42.98 26.086,-54.109 39.903,-114.09 40.106,-174.172 0,-0.391 0.004,-0.769 0.004,-1.148 0,-27.7 -3.434,-56.641 -19.043,-79.493 -9.246,-13.207 -22.5,-18.347 -35.887,-18.347" /><path
         id="path248"
         style="fill:#f03d5f;fill-opacity:1;fill-rule:nonzero;stroke:none"
         d="m 555.809,288.57 c -32.969,17.012 -71.797,19.231 -108.403,13.18 -19.668,-3.258 -40.168,-9.129 -53.547,-23.91 -13.382,-14.77 -15.918,-40.762 -0.558,-53.461 9.152,-7.559 21.906,-8.699 33.765,-8.559 28.657,0.328 60.454,5.379 83.348,-11.871 13.059,-9.828 21.754,-26.187 37.371,-31.019 15.278,-4.739 32.52,4.281 40.625,18.07 8.094,13.781 8.367,31.031 4.59,46.57 0,0 -3.977,33.871 -37.191,51" /><path
         id="path250"
         style="fill:#f03d5f;fill-opacity:1;fill-rule:nonzero;stroke:none"
         d="m 686.715,393.082 c -21.891,25.988 -26.039,63.879 -16.305,96.43 9.742,32.547 31.754,60.23 57.113,82.84 29.735,26.507 64.692,47.128 102.262,60.339 14.797,5.2 30.391,9.297 45.996,7.821 15.606,-1.5 31.321,-9.481 38.594,-23.352 10.762,-20.531 0.445,-45.43 -10.719,-65.75 C 884,515.629 861.516,481.391 836.488,449.129 816.359,423.172 793.297,397.57 762.613,385.84 731.93,374.109 700.059,375.488 683.797,396.77" /><path
         id="path252"
         style="fill:#17282f;fill-opacity:1;fill-rule:nonzero;stroke:none"
         d="M 632.715,0.0195313 C 632.34,0 631.727,4.67188 630.895,13.1016 c -0.926,9.5273 -2.09,21.4882 -3.477,35.7187 -1.664,15.0313 -3.863,32.9102 -8.031,52.3707 -4.164,19.418 -10.676,40.481 -19.039,61.829 -8.66,21.218 -19.223,40.5 -31.567,55.929 -12.261,15.492 -26.515,26.711 -39.914,33.18 -13.351,6.601 -25.332,9.269 -33.613,10.473 -8.344,0.859 -13.024,1.507 -13.027,1.878 0,0.372 4.683,0.43 13.261,0.211 8.496,-0.57 20.973,-2.722 35.043,-9.132 14.121,-6.258 29.246,-17.637 42.102,-33.457 12.961,-15.75 23.91,-35.461 32.722,-57.063 8.508,-21.73 14.93,-42.988 18.903,-62.828 3.965,-19.8204 5.777,-37.9024 6.965,-53.0508 1.132,-15.1602 1.562,-27.4414 1.769,-35.9297 0.188,-8.48831 0.09,-13.1914375 -0.277,-13.2109687" /><path
         id="path254"
         style="fill:#17282f;fill-opacity:1;fill-rule:nonzero;stroke:none"
         d="m 630.254,27.5 c -0.184,0.0117 -0.301,2.1016 -0.352,6.0703 0.016,4.5586 0.032,10.3086 0.043,17.3711 0.047,15.0508 0.039,36.8594 -0.769,63.7886 -1.332,53.848 -5.965,128.192 -14.922,209.899 -9.024,81.742 -20.981,155.25 -31.879,208.012 -2.574,13.211 -5.168,25.109 -7.613,35.531 -2.328,10.437 -4.317,19.449 -6.235,26.726 -1.652,6.864 -2.988,12.442 -4.058,16.883 -0.867,3.867 -1.239,5.93 -1.067,5.981 0.184,0.047 0.907,-1.903 2.118,-5.692 1.324,-4.371 2.988,-9.871 5.039,-16.629 2.234,-7.222 4.527,-16.16 7.14,-26.562 2.727,-10.387 5.586,-22.25 8.41,-35.449 11.883,-52.68 24.469,-126.301 33.512,-208.211 8.973,-81.879 13.016,-156.43 13.371,-210.418 0.324,-26.9924 -0.254,-48.8401 -0.941,-63.9221 -0.43,-7.0469 -0.781,-12.7969 -1.059,-17.3594 -0.304,-3.9609 -0.551,-6.0273 -0.738,-6.0195" /><path
         id="path256"
         style="fill:#17282f;fill-opacity:1;fill-rule:nonzero;stroke:none"
         d="m 629.895,171.289 c -0.372,0.02 -0.309,6.449 0.125,18.141 0.668,11.648 2.273,28.5 5.558,49.129 3.477,20.589 8.34,45.031 15.981,71.589 7.265,26.661 17.246,55.442 29.937,84.723 24.832,58.91 58.567,107.07 87.918,136.899 6.883,7.921 14.551,13.628 20.68,19.222 3.176,2.688 5.98,5.367 8.84,7.477 2.871,1.992 5.539,3.82 8.019,5.531 9.664,6.609 15.07,10.09 15.27,9.781 0.871,-1.172 -21.629,-14.422 -50.047,-44.652 -28.297,-30.168 -61.098,-77.988 -85.727,-136.41 -12.578,-29.02 -22.629,-57.528 -30.105,-83.93 -7.852,-26.301 -13.067,-50.5 -17.008,-70.879 -3.738,-20.43 -5.91,-37.101 -7.223,-48.648 -1.07,-11.582 -1.847,-17.981 -2.218,-17.973" /></g></g></svg>